<?xml version="1.0" encoding="utf-8"?>
<!-- Generator: Adobe Illustrator 26.3.1, SVG Export Plug-In . SVG Version: 6.00 Build 0)  -->
<svg version="1.1" xmlns="http://www.w3.org/2000/svg" xmlns:xlink="http://www.w3.org/1999/xlink" x="0px" y="0px"
	 viewBox="0 0 240.8 93.2" style="enable-background:new 0 0 240.8 93.2;" xml:space="preserve">
<style type="text/css">
	.st0{fill:url(#SVGID_1_);}
	.st1{fill:#FFFFFF;}
	.st2{fill:url(#SVGID_00000039094231987860543660000007125275404727803039_);}
	.st3{fill:#1F4F6F;}
</style>
<g id="Layer_1">
</g>
<g id="Слой_1">
	<g>
		<g>
			
				<image style="overflow:visible;" width="475" height="474" xlink:href="F65A090E.png"  transform="matrix(0.24 0 0 0.24 -9.1412 -10.2418)">
			</image>
			<g>
				<g>
					<g>
						<linearGradient id="SVGID_1_" gradientUnits="userSpaceOnUse" x1="47.8318" y1="85.7506" x2="47.8318" y2="7.4875">
							<stop  offset="0" style="stop-color:#FFEFB3"/>
							<stop  offset="1" style="stop-color:#FFDA00"/>
						</linearGradient>
						<circle class="st0" cx="47.8" cy="46.6" r="39.1"/>
						<path class="st1" d="M47.8,86.4c-5.4,0-10.6-1.1-15.5-3.1c-4.7-2-9-4.9-12.6-8.5c-3.7-3.7-6.5-7.9-8.5-12.6
							C9.1,57.2,8.1,52,8.1,46.6S9.1,36,11.2,31.1c2-4.7,4.9-9,8.5-12.6c3.7-3.7,7.9-6.5,12.6-8.5c4.9-2.1,10.1-3.1,15.5-3.1
							S58.4,7.9,63.3,10c4.7,2,9,4.9,12.6,8.5c3.7,3.7,6.5,7.9,8.5,12.6c2.1,4.9,3.1,10.1,3.1,15.5s-1.1,10.6-3.1,15.5
							c-2,4.7-4.9,9-8.5,12.6c-3.7,3.7-7.9,6.5-12.6,8.5C58.4,85.3,53.2,86.4,47.8,86.4z M47.8,8.1C26.6,8.1,9.3,25.4,9.3,46.6
							s17.3,38.5,38.5,38.5s38.5-17.3,38.5-38.5S69.1,8.1,47.8,8.1z"/>
					</g>
					<g>
						<circle class="st1" cx="47.8" cy="46.6" r="19.2"/>
						<path class="st1" d="M47.8,65.9c-10.6,0-19.2-8.6-19.2-19.2c0-10.6,8.6-19.2,19.2-19.2c10.6,0,19.2,8.6,19.2,19.2
							C67.1,57.2,58.4,65.9,47.8,65.9z M47.8,27.5c-10.5,0-19.1,8.6-19.1,19.1c0,10.5,8.6,19.1,19.1,19.1c10.5,0,19.1-8.6,19.1-19.1
							C67,36.1,58.4,27.5,47.8,27.5z"/>
					</g>
					<g>
						
							<radialGradient id="SVGID_00000021828862163696915850000000240633653610595500_" cx="42.0602" cy="45.1114" r="15.7563" gradientUnits="userSpaceOnUse">
							<stop  offset="0" style="stop-color:#FFFFFF"/>
							<stop  offset="1" style="stop-color:#FFD300"/>
						</radialGradient>
						<path style="fill:url(#SVGID_00000021828862163696915850000000240633653610595500_);" d="M54.5,53.5c0,5.6-4.5,10.1-10.1,10.1
							s-14.7-5.4-14.7-18.2c0-10.7,10.6-17.7,17.6-18.8c-7.8,12.1,2.3,17.9,4.2,19.7C53.3,48.1,54.5,50.7,54.5,53.5z"/>
						<path class="st1" d="M47.3,26.6c-7.8,12.1,2.3,17.9,4.2,19.7c1.9,1.8,3,4.4,3,7.2c0,5.6-4.5,10.1-10.1,10.1
							c-5.6,0-14.7-5.4-14.7-18.2C29.7,34.7,40.2,27.7,47.3,26.6 M50.2,24.7l-3.1,0.5c-1.9,0.3-4.1,1-6.1,2
							c-2.2,1.1-4.3,2.5-6.1,4.1c-2,1.8-3.6,3.9-4.7,6.1c-1.3,2.5-1.9,5.2-1.9,7.9c0,7.7,3.1,12.4,5.7,14.9c1.5,1.5,3.3,2.7,5.2,3.5
							c1.8,0.8,3.6,1.2,5.2,1.2c3.1,0,6-1.2,8.1-3.4c2.2-2.2,3.4-5.1,3.4-8.1c0-3.1-1.2-6-3.4-8.2c-0.3-0.3-0.6-0.5-1-0.9
							c-3-2.4-9.2-7.5-2.9-17.1L50.2,24.7L50.2,24.7z"/>
					</g>
				</g>
			</g>
		</g>
		<g>
			<g>
				<path class="st3" d="M82.1,38.9c-0.3-0.8-0.8-1.1-1.5-1.1c-0.7,0-1.2,0.4-1.5,1.1l-8.7,21.7c-0.2,0.6-0.2,1.1,0.1,1.6
					c0.3,0.5,0.8,0.8,1.3,0.8c0.3,0,0.6-0.1,0.9-0.3c0.3-0.2,0.5-0.4,0.6-0.8l1.8-4.5h11.1l1.7,4.5c0.1,0.3,0.3,0.6,0.6,0.8
					c0.3,0.2,0.6,0.3,0.9,0.3c0.6,0,1-0.2,1.3-0.7c0.3-0.5,0.3-1,0.1-1.6L82.1,38.9z M76.2,54.6l4.5-11.5l4.4,11.5H76.2z"/>
				<path class="st3" d="M101.4,53.9l5.6-6.3c0.3-0.3,0.4-0.6,0.3-1c0-0.4-0.2-0.7-0.5-1c-0.3-0.3-0.6-0.4-1.1-0.3
					c-0.5,0-0.9,0.2-1.1,0.5l-5.6,6.5h-2.4v-5.4c0-0.5-0.2-0.9-0.4-1.2c-0.3-0.3-0.7-0.5-1.2-0.5c-0.5,0-0.8,0.2-1.1,0.5
					c-0.3,0.3-0.4,0.7-0.4,1.2v14.4c0,0.5,0.1,0.9,0.4,1.2c0.3,0.3,0.6,0.5,1.1,0.5c0.5,0,0.9-0.2,1.2-0.5c0.3-0.3,0.4-0.7,0.4-1.2
					v-6h2l6.4,7.1c0.3,0.3,0.6,0.4,1.1,0.4c0.5,0,0.9-0.1,1.1-0.4c0.3-0.3,0.5-0.6,0.5-1c0-0.4-0.1-0.7-0.4-1L101.4,53.9z"/>
				<path class="st3" d="M123,53.8c-0.1,0-0.1,0-0.2-0.1c0.4-0.2,0.7-0.4,1-0.7c0.9-0.8,1.3-1.8,1.3-3.1c0-0.9-0.2-1.7-0.7-2.4
					c-0.4-0.7-1-1.2-1.8-1.6c-0.8-0.4-1.6-0.6-2.6-0.6h-7.7v0c0,0,0,0,0,0c-0.4,0-0.8,0.2-1.1,0.5c-0.3,0.3-0.5,0.7-0.5,1.2v14.4
					c0,0.5,0.1,0.9,0.4,1.2c0.3,0.3,0.7,0.5,1.1,0.5h7.6c1.1,0,2.1-0.2,3-0.6c0.9-0.4,1.6-1,2.1-1.8c0.5-0.8,0.7-1.6,0.7-2.6
					c0-0.9-0.2-1.8-0.7-2.5C124.6,54.7,123.9,54.2,123,53.8z M121.6,48.9c0.4,0.4,0.6,0.8,0.6,1.4c0,0.6-0.2,1.2-0.5,1.6
					c-0.3,0.4-0.8,0.6-1.3,0.6H120h-2.4H114v-4.2h6.2C120.8,48.3,121.2,48.5,121.6,48.9z M122,59.3c-0.5,0.4-1.2,0.6-2,0.6h-6v-4.7
					h6c0.8,0,1.5,0.2,2,0.7c0.5,0.5,0.8,1,0.8,1.7C122.8,58.3,122.5,58.8,122,59.3z"/>
				<path class="st3" d="M140.9,46.3c-1.3-0.8-2.7-1.2-4.3-1.2c-1.6,0-3.1,0.4-4.4,1.2c-1.3,0.8-2.3,1.9-3.1,3.2
					c-0.8,1.4-1.1,2.9-1.1,4.6c0,1.7,0.3,3.2,1,4.6c0.7,1.3,1.6,2.4,2.8,3.2c1.2,0.8,2.5,1.2,4.1,1.2c1.5,0,2.9-0.4,4.1-1.2
					c0.7-0.5,1.4-1.1,1.9-1.8v1.2c0,0.5,0.1,0.9,0.4,1.2c0.3,0.3,0.7,0.5,1.1,0.5c0.5,0,0.8-0.2,1.1-0.5c0.3-0.3,0.4-0.7,0.4-1.2
					v-7.2c0-1.7-0.4-3.2-1.1-4.6C143.2,48.2,142.2,47.1,140.9,46.3z M141.3,57.2c-0.5,0.9-1.1,1.6-2,2.2c-0.8,0.5-1.8,0.8-2.8,0.8
					c-1,0-2-0.3-2.8-0.8c-0.8-0.5-1.5-1.2-2-2.2c-0.5-0.9-0.7-1.9-0.7-3.1c0-1.2,0.2-2.2,0.7-3.1c0.5-0.9,1.1-1.6,2-2.2
					c0.8-0.5,1.8-0.8,2.8-0.8c1.1,0,2,0.3,2.8,0.8c0.8,0.5,1.5,1.2,2,2.2c0.5,0.9,0.7,2,0.7,3.1C142.1,55.3,141.8,56.3,141.3,57.2z"
					/>
				<path class="st3" d="M156.8,46.4c-0.1-0.4-0.3-0.6-0.6-0.8c-0.2-0.2-0.5-0.3-0.8-0.3c-0.7,0-1.2,0.4-1.5,1.1l-6.4,14.4
					c-0.2,0.4-0.2,0.8-0.1,1.1c0.2,0.3,0.4,0.6,0.8,0.8c0.4,0.2,0.8,0.3,1.2,0.1c0.4-0.1,0.6-0.4,0.8-0.8l5.2-11.9l5,11.9
					c0.2,0.4,0.5,0.7,0.8,0.8c0.3,0.1,0.7,0.1,1.2-0.2c0.4-0.2,0.6-0.4,0.7-0.8c0.1-0.3,0.1-0.7-0.1-1.1L156.8,46.4z"/>
				<path class="st3" d="M178.4,46.3c-1.3-0.8-2.7-1.2-4.3-1.2c-1.6,0-3.1,0.4-4.4,1.2c-1.3,0.8-2.3,1.9-3.1,3.2
					c-0.8,1.4-1.1,2.9-1.1,4.6c0,1.7,0.3,3.2,1,4.6c0.7,1.3,1.6,2.4,2.8,3.2c1.2,0.8,2.5,1.2,4.1,1.2c1.5,0,2.9-0.4,4.1-1.2
					c0.7-0.5,1.4-1.1,1.9-1.8v1.2c0,0.5,0.1,0.9,0.4,1.2c0.3,0.3,0.7,0.5,1.1,0.5c0.5,0,0.8-0.2,1.1-0.5c0.3-0.3,0.4-0.7,0.4-1.2
					v-7.2c0-1.7-0.4-3.2-1.1-4.6C180.7,48.2,179.7,47.1,178.4,46.3z M178.9,57.2c-0.5,0.9-1.1,1.6-2,2.2c-0.8,0.5-1.8,0.8-2.8,0.8
					c-1,0-2-0.3-2.8-0.8c-0.8-0.5-1.5-1.2-2-2.2c-0.5-0.9-0.7-1.9-0.7-3.1c0-1.2,0.2-2.2,0.7-3.1c0.5-0.9,1.1-1.6,2-2.2
					c0.8-0.5,1.8-0.8,2.8-0.8c1.1,0,2,0.3,2.8,0.8c0.8,0.5,1.5,1.2,2,2.2c0.5,0.9,0.7,2,0.7,3.1C179.6,55.3,179.4,56.3,178.9,57.2z"
					/>
				<path class="st3" d="M200.8,45.3c-0.5,0-0.8,0.2-1.1,0.5c-0.3,0.3-0.4,0.7-0.4,1.2v5.4h-9.6v-5.4c0-0.5-0.1-0.9-0.4-1.2
					c-0.3-0.3-0.7-0.5-1.1-0.5c-0.5,0-0.8,0.2-1.1,0.5c-0.3,0.3-0.4,0.7-0.4,1.2v14.4c0,0.5,0.1,0.9,0.4,1.2
					c0.3,0.3,0.6,0.5,1.1,0.5c0.5,0,0.9-0.2,1.1-0.5c0.3-0.3,0.4-0.7,0.4-1.2v-6.1h9.6v6.1c0,0.5,0.1,0.9,0.4,1.2
					c0.3,0.3,0.7,0.5,1.1,0.5c0.5,0,0.8-0.2,1.1-0.5c0.3-0.3,0.4-0.7,0.4-1.2V46.9c0-0.5-0.1-0.9-0.4-1.2
					C201.7,45.5,201.3,45.3,200.8,45.3z"/>
				<path class="st3" d="M232.6,60.6l-8.2-21.7c-0.3-0.8-0.7-1.1-1.4-1.1c-0.7,0-1.1,0.4-1.4,1.1l-8.2,21.7
					c-0.2,0.6-0.2,1.1,0.1,1.6c0.3,0.5,0.7,0.8,1.2,0.8c0.3,0,0.5-0.1,0.8-0.3c0.3-0.2,0.5-0.4,0.6-0.8l7-18.6l6.8,18.6
					c0.1,0.3,0.3,0.6,0.6,0.8c0.3,0.2,0.5,0.3,0.8,0.3c0.6,0,1-0.2,1.2-0.7C232.8,61.7,232.8,61.2,232.6,60.6z"/>
			</g>
		</g>
	</g>
</g>
</svg>
