<?xml version="1.0" encoding="utf-8"?>
<!-- Generator: Adobe Illustrator 26.3.1, SVG Export Plug-In . SVG Version: 6.00 Build 0)  -->
<svg version="1.1" id="Слой_2_1_" xmlns="http://www.w3.org/2000/svg" xmlns:xlink="http://www.w3.org/1999/xlink" x="0px"
	 y="0px" viewBox="0 0 584.5 189.2" style="enable-background:new 0 0 584.5 189.2;" xml:space="preserve">
<style type="text/css">
	
		.st0{clip-path:url(#SVGID_00000032615796126862088300000014507224318682025103_);fill:url(#SVGID_00000070808371982525979080000007283576409636765362_);}
	
		.st1{clip-path:url(#SVGID_00000085246053789840912350000011092579480012983210_);fill:url(#SVGID_00000014628206047671960820000008976246388787021963_);}
	.st2{fill:#FFF5C2;}
	.st3{fill:#FFF5C1;}
	.st4{fill:#FFF4BE;}
	.st5{fill:#FFF4BD;}
	.st6{fill:#FFF4BB;}
	.st7{fill:#FFF4B9;}
	.st8{fill:#FFF3B7;}
	.st9{fill:#FFF3B5;}
	.st10{fill:#FFF3B3;}
	.st11{fill:#FFF2B1;}
	.st12{fill:#FFF2AF;}
	.st13{fill:#FFF2AD;}
	.st14{fill:#FFF2AB;}
	.st15{fill:#FFF1A9;}
	.st16{fill:#FFF1A8;}
	.st17{fill:#FFF1A5;}
	.st18{fill:#FFF1A4;}
	.st19{fill:#FFF0A1;}
	.st20{fill:#FFF0A0;}
	.st21{fill:#FFF09E;}
	.st22{fill:#FFF09B;}
	.st23{fill:#FFEF9A;}
	.st24{fill:#FFEF98;}
	.st25{fill:#FFEF96;}
	.st26{fill:#FFEF94;}
	.st27{fill:#FFEE92;}
	.st28{fill:#FFEE90;}
	.st29{fill:#FFEE8F;}
	.st30{fill:#FFEE8C;}
	.st31{fill:#FFEE8B;}
	.st32{fill:#FFED89;}
	.st33{fill:#FFED86;}
	.st34{fill:#FFED85;}
	.st35{fill:#FFED83;}
	.st36{fill:#FFEC81;}
	.st37{fill:#FFEC7F;}
	.st38{fill:#FFEC7D;}
	.st39{fill:#FFEC7B;}
	.st40{fill:#FFEC79;}
	.st41{fill:#FFEB76;}
	.st42{fill:#FFEB75;}
	.st43{fill:#FFEB72;}
	.st44{fill:#FFEB6F;}
	.st45{fill:#FFEA6E;}
	.st46{fill:#FFEA6B;}
	.st47{fill:#FFEA69;}
	.st48{fill:#FFEA66;}
	.st49{fill:#FFEA64;}
	.st50{fill:#FFE961;}
	.st51{fill:#FFE95F;}
	.st52{fill:#FFE95C;}
	.st53{fill:#FFE959;}
	.st54{fill:#FFE856;}
	.st55{fill:#FFE853;}
	.st56{fill:#FFE851;}
	.st57{fill:#FFE84D;}
	.st58{fill:#FFE84B;}
	.st59{fill:#FFE747;}
	.st60{fill:#FFE745;}
	.st61{fill:#FFE741;}
	.st62{fill:#FFE73F;}
	.st63{fill:#FFE73B;}
	.st64{fill:#FFE637;}
	.st65{fill:#FFE634;}
	.st66{fill:#FFE630;}
	.st67{fill:#FFE62D;}
	.st68{fill:#FFE628;}
	.st69{fill:#FFE625;}
	.st70{fill:#FFE51F;}
	.st71{fill:#FFE51A;}
	.st72{fill:#FFE512;}
	.st73{fill:#FFFFFF;}
	.st74{fill:#FFF9DB;}
	.st75{fill:#FFF5C7;}
	.st76{fill:#FFF6CA;}
	.st77{fill:#FFF7CE;}
	.st78{fill:#FFF7D2;}
	.st79{fill:#FFF9DF;}
	.st80{fill:#FFF8D8;}
	.st81{fill:#FFFAE4;}
	.st82{fill:none;stroke:#FFFFFF;stroke-width:2.83;stroke-miterlimit:3.9;}
	.st83{fill:url(#SVGID_00000085235353977989861610000007709287183463272103_);}
	.st84{fill:#2B3748;}
</style>
<g>
	<defs>
		<rect id="SVGID_1_" x="-9.4" y="-4.6" width="213.2" height="115.4"/>
	</defs>
	<clipPath id="SVGID_00000013899208028230416060000016642524370701595018_">
		<use xlink:href="#SVGID_1_"  style="overflow:visible;"/>
	</clipPath>
	
		<radialGradient id="SVGID_00000096046330591057338550000009374291301904604579_" cx="97.0974" cy="92.8427" r="85.3118" gradientTransform="matrix(1.0725 0 0 1.0418 -7.7655 -4.9315)" gradientUnits="userSpaceOnUse">
		<stop  offset="0" style="stop-color:#FFFFFF;stop-opacity:0"/>
		<stop  offset="6.486475e-02" style="stop-color:#FFE625"/>
		<stop  offset="0.8811" style="stop-color:#FFE625"/>
		<stop  offset="0.9676" style="stop-color:#FFE625;stop-opacity:0"/>
	</radialGradient>
	
		<ellipse style="clip-path:url(#SVGID_00000013899208028230416060000016642524370701595018_);fill:url(#SVGID_00000096046330591057338550000009374291301904604579_);" cx="96.4" cy="91.8" rx="91.5" ry="88.9"/>
</g>
<g>
	<defs>
		<rect id="SVGID_00000092434056313186486170000016941066364577506992_" x="-9.4" y="110.8" width="213.2" height="78.4"/>
	</defs>
	<clipPath id="SVGID_00000122716514559496395560000014858456838754854292_">
		<use xlink:href="#SVGID_00000092434056313186486170000016941066364577506992_"  style="overflow:visible;"/>
	</clipPath>
	
		<radialGradient id="SVGID_00000030445713920026943370000007844994846058912640_" cx="97.0974" cy="92.8427" r="85.3118" gradientTransform="matrix(1.0725 0 0 1.0418 -7.7655 -4.9315)" gradientUnits="userSpaceOnUse">
		<stop  offset="0" style="stop-color:#FFFFFF;stop-opacity:0"/>
		<stop  offset="6.486420e-02" style="stop-color:#FFF3B5"/>
		<stop  offset="0.8811" style="stop-color:#FFF3B5"/>
		<stop  offset="0.8993" style="stop-color:#FFF19C;stop-opacity:0.7897"/>
		<stop  offset="0.9378" style="stop-color:#FFEB5B;stop-opacity:0.3447"/>
		<stop  offset="0.9676" style="stop-color:#FFE625;stop-opacity:0"/>
	</radialGradient>
	
		<ellipse style="clip-path:url(#SVGID_00000122716514559496395560000014858456838754854292_);fill:url(#SVGID_00000030445713920026943370000007844994846058912640_);" cx="96.4" cy="91.8" rx="91.5" ry="88.9"/>
</g>
<g id="Слой_2">
	<g id="Perusvoide_artwork">
		<path class="st2" d="M89.9,171.8c2.4,0.2,4.9,0.3,7.4,0.3c3.4,0,6.9-0.2,10.3-0.6L89.9,171.8"/>
		<path class="st2" d="M84.7,171.1c1.8,0.3,3.6,0.5,5.5,0.6l17.2-0.3c1.8-0.2,3.6-0.5,5.4-0.8L84.7,171.1"/>
		<path class="st3" d="M80.9,170.5c1.3,0.3,2.6,0.5,3.9,0.7l27.8-0.5c1.3-0.2,2.6-0.5,3.8-0.8L80.9,170.5"/>
		<path class="st3" d="M77.9,169.8c1,0.3,2.1,0.5,3.2,0.7l35.3-0.6c1-0.2,2.1-0.5,3.1-0.8L77.9,169.8"/>
		<path class="st4" d="M75.2,169.1c0.9,0.2,1.8,0.5,2.7,0.7l41.3-0.7c0.9-0.2,1.8-0.5,2.7-0.8L75.2,169.1"/>
		<path class="st4" d="M72.9,168.5c0.8,0.2,1.6,0.5,2.5,0.7l46.6-0.8c0.8-0.2,1.6-0.5,2.4-0.8L72.9,168.5"/>
		<path class="st4" d="M70.8,167.8c0.7,0.2,1.4,0.5,2.2,0.7l51.3-0.9c0.7-0.2,1.5-0.5,2.2-0.8L70.8,167.8"/>
		<path class="st5" d="M68.8,167.1c0.7,0.2,1.3,0.5,2,0.7l55.6-1c0.7-0.2,1.3-0.5,2-0.8L68.8,167.1"/>
		<path class="st5" d="M67,166.4c0.6,0.2,1.2,0.5,1.9,0.7l59.4-1c0.6-0.2,1.2-0.5,1.9-0.8L67,166.4"/>
		<path class="st6" d="M65.3,165.7c0.6,0.2,1.2,0.5,1.8,0.7l63.1-1.1c0.6-0.2,1.2-0.5,1.7-0.8L65.3,165.7"/>
		<path class="st6" d="M63.7,165.1c0.6,0.2,1.1,0.5,1.7,0.7l66.5-1.2c0.5-0.2,1.1-0.5,1.6-0.8L63.7,165.1"/>
		<path class="st6" d="M62.2,164.4c0.5,0.2,1,0.5,1.6,0.7l69.7-1.2c0.5-0.2,1-0.5,1.6-0.8L62.2,164.4"/>
		<path class="st7" d="M60.7,163.7c0.5,0.2,1,0.5,1.5,0.7l72.7-1.3c0.5-0.2,1-0.5,1.5-0.8L60.7,163.7"/>
		<path class="st7" d="M59.3,163c0.5,0.2,0.9,0.5,1.4,0.7l75.6-1.3c0.5-0.2,0.9-0.5,1.4-0.8L59.3,163"/>
		<path class="st8" d="M58,162.3c0.5,0.2,0.9,0.5,1.4,0.7l78.3-1.4c0.4-0.2,0.9-0.5,1.4-0.8L58,162.3"/>
		<path class="st8" d="M56.7,161.6c0.4,0.2,0.9,0.5,1.3,0.7l80.9-1.4c0.4-0.2,0.9-0.5,1.3-0.8L56.7,161.6"/>
		<path class="st8" d="M55.5,160.9c0.4,0.2,0.8,0.5,1.3,0.7l83.4-1.4c0.4-0.2,0.8-0.5,1.2-0.8L55.5,160.9"/>
		<path class="st9" d="M54.3,160.2c0.4,0.2,0.8,0.5,1.2,0.7l85.9-1.5c0.4-0.2,0.8-0.5,1.2-0.8L54.3,160.2"/>
		<path class="st9" d="M53.2,159.6c0.4,0.2,0.8,0.5,1.2,0.7l88.2-1.5c0.4-0.2,0.8-0.5,1.1-0.8L53.2,159.6"/>
		<path class="st9" d="M52.1,158.8c0.4,0.2,0.8,0.5,1.1,0.7l90.4-1.6c0.4-0.2,0.7-0.5,1.1-0.8L52.1,158.8"/>
		<path class="st10" d="M51.1,158.1c0.4,0.2,0.7,0.5,1.1,0.7l92.6-1.6l1.1-0.8L51.1,158.1"/>
		<path class="st10" d="M50,157.4c0.4,0.2,0.7,0.5,1.1,0.7l94.7-1.7l1-0.8L50,157.4"/>
		<path class="st11" d="M49,156.7c0.3,0.2,0.7,0.5,1,0.7l96.7-1.7l1-0.8L49,156.7"/>
		<path class="st11" d="M48.1,156c0.3,0.2,0.7,0.5,1,0.7l98.7-1.7l1-0.8L48.1,156"/>
		<path class="st11" d="M47.1,155.3c0.3,0.2,0.6,0.5,1,0.7l100.5-1.7c0.3-0.2,0.6-0.5,0.9-0.8L47.1,155.3"/>
		<path class="st12" d="M46.2,154.6c0.3,0.2,0.6,0.5,0.9,0.7l102.4-1.8l0.9-0.8L46.2,154.6"/>
		<path class="st12" d="M45.3,153.9c0.3,0.2,0.6,0.5,0.9,0.7l104.3-1.8l0.9-0.8L45.3,153.9"/>
		<path class="st13" d="M44.5,153.2l0.9,0.7l105.9-1.9l0.9-0.8L44.5,153.2"/>
		<path class="st13" d="M43.6,152.6c0.3,0.2,0.6,0.5,0.9,0.7l107.7-1.9l0.8-0.8L43.6,152.6"/>
		<path class="st13" d="M42.8,151.8c0.3,0.2,0.6,0.5,0.9,0.7l109.3-1.9l0.8-0.8L42.8,151.8"/>
		<path class="st14" d="M42,151.1c0.3,0.2,0.5,0.5,0.8,0.7l110.9-1.9l0.8-0.8L42,151.1"/>
		<path class="st14" d="M41.3,150.4c0.3,0.2,0.5,0.5,0.8,0.7l112.5-2l0.8-0.8L41.3,150.4"/>
		<path class="st15" d="M40.5,149.7c0.2,0.2,0.5,0.5,0.8,0.7l114-2l0.8-0.8L40.5,149.7"/>
		<path class="st15" d="M39.8,149l0.8,0.7l115.5-2l0.7-0.8L39.8,149"/>
		<path class="st15" d="M39,148.3l0.8,0.7l117-2l0.7-0.8L39,148.3"/>
		<path class="st16" d="M38.3,147.6l0.7,0.7l118.4-2l0.7-0.8L38.3,147.6"/>
		<path class="st16" d="M37.7,146.9l0.7,0.7l119.7-2.1l0.7-0.8L37.7,146.9"/>
		<path class="st17" d="M37,146.2l0.7,0.7l121.1-2.1c0.2-0.2,0.5-0.5,0.7-0.8L37,146.2"/>
		<path class="st17" d="M36.3,145.5c0.2,0.2,0.5,0.5,0.7,0.7l122.4-2.1l0.6-0.8L36.3,145.5"/>
		<path class="st17" d="M35.7,144.8c0.2,0.2,0.4,0.5,0.7,0.7l123.7-2.2l0.6-0.8L35.7,144.8"/>
		<path class="st18" d="M35.1,144.1c0.2,0.2,0.4,0.5,0.6,0.7l125-2.2l0.6-0.8L35.1,144.1"/>
		<path class="st18" d="M34.5,143.4l0.6,0.7l126.2-2.2l0.6-0.8L34.5,143.4"/>
		<path class="st19" d="M33.9,142.7l0.6,0.7l127.4-2.2l0.6-0.8L33.9,142.7"/>
		<path class="st19" d="M33.3,142l0.6,0.7l128.5-2.2l0.6-0.8L33.3,142"/>
		<path class="st19" d="M32.7,141.2c0.2,0.2,0.4,0.5,0.6,0.7l129.7-2.3l0.6-0.8L32.7,141.2"/>
		<path class="st20" d="M32.2,140.6c0.2,0.2,0.4,0.5,0.6,0.7l130.8-2.3l0.6-0.8L32.2,140.6"/>
		<path class="st20" d="M31.6,139.8l0.6,0.7l131.9-2.3l0.5-0.7L31.6,139.8"/>
		<path class="st20" d="M31.1,139.1l0.6,0.7l133-2.3l0.5-0.8L31.1,139.1"/>
		<path class="st21" d="M30.6,138.4l0.5,0.7l134-2.4l0.5-0.7L30.6,138.4"/>
		<path class="st21" d="M30,137.7l0.5,0.7l135-2.4l0.5-0.8L30,137.7"/>
		<path class="st22" d="M29.5,137c0.2,0.3,0.3,0.5,0.5,0.7l136-2.4l0.5-0.8L29.5,137"/>
		<path class="st22" d="M29.1,136.3c0.2,0.2,0.3,0.5,0.5,0.7l137-2.4l0.5-0.8L29.1,136.3"/>
		<path class="st22" d="M28.6,135.6c0.2,0.2,0.3,0.5,0.5,0.7l137.9-2.4l0.5-0.8L28.6,135.6"/>
		<path class="st23" d="M28.1,134.9c0.1,0.2,0.3,0.5,0.5,0.7l138.9-2.4l0.5-0.8L28.1,134.9"/>
		<path class="st23" d="M27.7,134.2l0.5,0.7l139.8-2.4l0.4-0.8L27.7,134.2"/>
		<path class="st24" d="M27.2,133.5l0.5,0.7l140.6-2.5l0.4-0.8L27.2,133.5"/>
		<path class="st24" d="M26.8,132.8l0.4,0.7l141.5-2.5l0.4-0.8L26.8,132.8"/>
		<path class="st24" d="M26.4,132l0.4,0.7l142.4-2.5l0.4-0.7L26.4,132"/>
		<path class="st25" d="M25.9,131.3c0.1,0.3,0.3,0.5,0.4,0.7l143.2-2.5l0.4-0.7L25.9,131.3"/>
		<path class="st25" d="M25.5,130.6l0.4,0.7l144-2.5l0.4-0.8l-75,1.3c-2.9,0.5-5.8,0.6-8.7,0.1L25.5,130.6"/>
		<path class="st26" d="M25.1,129.9c0.1,0.2,0.3,0.5,0.4,0.7l61.2-1.1c-1.2-0.2-2.3-0.4-3.5-0.7L25.1,129.9 M95.1,129.4
			c1.1-0.2,2.1-0.5,3.2-0.8l72.4-1.2l-0.4,0.8L95.1,129.4"/>
		<path class="st26" d="M24.8,129.2c0.1,0.2,0.3,0.5,0.4,0.7l58.2-1c-0.8-0.2-1.6-0.4-2.4-0.7L24.8,129.2 M98.3,128.7
			c0.7-0.2,1.3-0.5,2-0.8l70.7-1.2l-0.4,0.8L98.3,128.7"/>
		<path class="st26" d="M24.4,128.6l0.4,0.7l56.3-1c-0.6-0.2-1.3-0.4-1.9-0.7L24.4,128.6 M100.2,128c0.5-0.2,1.1-0.5,1.6-0.8
			l69.6-1.3l-0.4,0.8L100.2,128"/>
		<path class="st27" d="M24,127.8l0.4,0.7l54.8-1c-0.5-0.2-1.1-0.5-1.6-0.7L24,127.8 M101.7,127.2c0.4-0.2,0.9-0.5,1.3-0.8l68.7-1.2
			l-0.4,0.8L101.7,127.2"/>
		<path class="st27" d="M23.7,127.1l0.4,0.7l53.7-0.9c-0.5-0.2-0.9-0.5-1.4-0.7L23.7,127.1 M103,126.5l0.3-0.2
			c0.2-0.2,0.5-0.3,0.8-0.6l68-1.2l-0.4,0.7L103,126.5"/>
		<path class="st28" d="M23.3,126.4l0.4,0.7l52.6-0.9c-0.4-0.2-0.8-0.5-1.3-0.7L23.3,126.4 M104,125.7c0.3-0.2,0.6-0.5,0.9-0.8
			l67.5-1.2l-0.3,0.8L104,125.7"/>
		<path class="st28" d="M23,125.7l0.4,0.7l51.8-0.9c-0.4-0.2-0.8-0.5-1.2-0.7L23,125.7 M105,125c0.3-0.2,0.5-0.5,0.8-0.8l67-1.2
			l-0.3,0.8L105,125"/>
		<path class="st28" d="M22.6,125l0.3,0.7l51-0.9c-0.3-0.2-0.7-0.5-1-0.7L22.6,125 M105.7,124.2c0.2-0.2,0.5-0.5,0.7-0.8l66.6-1.2
			l-0.3,0.7L105.7,124.2"/>
		<path class="st29" d="M22.3,124.2l0.3,0.7l50.4-0.9c-0.3-0.2-0.6-0.5-1-0.7L22.3,124.2 M106.4,123.6l0.6-0.8l66.3-1.2l-0.3,0.8
			L106.4,123.6"/>
		<path class="st29" d="M22,123.6l0.3,0.7l49.8-0.9c-0.3-0.2-0.6-0.5-0.9-0.7L22,123.6 M107,122.8c0.2-0.2,0.4-0.5,0.6-0.8l66-1.2
			l-0.3,0.7L107,122.8"/>
		<path class="st30" d="M21.7,122.8l0.3,0.7l49.2-0.9c-0.3-0.2-0.6-0.5-0.8-0.7L21.7,122.8 M107.6,122.1l0.5-0.8l65.8-1.2l-0.3,0.8
			L107.6,122.1"/>
		<path class="st30" d="M21.4,122.1l0.3,0.7l48.7-0.8c-0.3-0.2-0.5-0.5-0.8-0.7L21.4,122.1 M108.1,121.3l0.5-0.7l65.6-1.2l-0.3,0.7
			L108.1,121.3"/>
		<path class="st30" d="M21.1,121.4l0.3,0.7l48.3-0.8c-0.2-0.2-0.5-0.5-0.7-0.7L21.1,121.4 M108.5,120.6l0.4-0.8l65.4-1.1l-0.3,0.8
			L108.5,120.6"/>
		<path class="st31" d="M20.8,120.7l0.3,0.7l47.9-0.9c-0.2-0.2-0.5-0.5-0.7-0.7L20.8,120.7 M109,119.9l0.4-0.8l65.3-1.1l-0.3,0.8
			L109,119.9"/>
		<path class="st31" d="M20.5,120l0.3,0.7l47.5-0.8l-0.3-0.3l-0.3-0.4L20.5,120 M109.4,119.2l0.4-0.8l65.2-1.1l-0.3,0.7L109.4,119.2
			"/>
		<path class="st31" d="M20.3,119.3l0.3,0.7l47.2-0.8c-0.2-0.2-0.4-0.5-0.6-0.7L20.3,119.3 M109.8,118.4l0.3-0.8l65.1-1.1l-0.2,0.8
			L109.8,118.4"/>
		<path class="st32" d="M20,118.6l0.3,0.7l46.8-0.8l-0.6-0.7L20,118.6 M110.1,117.7l0.3-0.8l65.1-1.1l-0.2,0.8L110.1,117.7"/>
		<path class="st32" d="M19.7,117.8l0.3,0.7l46.5-0.8c-0.2-0.2-0.4-0.5-0.6-0.7L19.7,117.8 M110.4,117l0.3-0.8l65-1.1l-0.2,0.7
			L110.4,117"/>
		<path class="st33" d="M19.5,117.1c0.1,0.2,0.2,0.5,0.2,0.7l46.2-0.8c-0.2-0.2-0.4-0.5-0.6-0.7L19.5,117.1 M110.7,116.3l0.3-0.7
			l65-1.1l-0.2,0.7L110.7,116.3"/>
		<path class="st33" d="M19.3,116.4l0.2,0.7l45.9-0.8c-0.2-0.2-0.3-0.5-0.5-0.7L19.3,116.4 M110.9,115.6l0.2-0.8l64.9-1.1l-0.2,0.8
			L110.9,115.6"/>
		<path class="st33" d="M19,115.7l0.2,0.7l45.7-0.8l-0.5-0.7L19,115.7 M111.1,114.8l0.2-0.7l65-1.1l-0.2,0.7L111.1,114.8"/>
		<path class="st34" d="M18.8,115l0.2,0.7l45.4-0.8l-0.5-0.7L18.8,115 M111.3,114.1l0.2-0.7l65-1.1l-0.2,0.7L111.3,114.1"/>
		<path class="st34" d="M18.6,114.3l0.2,0.7l45.2-0.8c-0.2-0.2-0.3-0.5-0.5-0.7L18.6,114.3 M111.5,113.4l0.2-0.7l65-1.1l-0.2,0.8
			L111.5,113.4"/>
		<path class="st35" d="M18.4,113.6l0.2,0.7l44.9-0.7c-0.2-0.2-0.3-0.5-0.4-0.7L18.4,113.6 M111.7,112.7l0.1-0.8l65-1.1l-0.2,0.8
			L111.7,112.7"/>
		<path class="st35" d="M18.2,112.9l0.2,0.7l44.7-0.8c-0.2-0.2-0.3-0.5-0.4-0.7L18.2,112.9 M111.8,112l0.1-0.7l65.1-1.2l-0.2,0.7
			L111.8,112"/>
		<path class="st35" d="M18,112.1c0.1,0.2,0.1,0.5,0.2,0.7l44.5-0.8c-0.1-0.2-0.3-0.5-0.4-0.7L18,112.1 M111.9,111.2l0.1-0.7
			l65.2-1.1l-0.2,0.7L111.9,111.2"/>
		<path class="st36" d="M17.8,111.4l0.2,0.7l44.3-0.8l-0.4-0.7L17.8,111.4 M112,110.6l0.1-0.7l65.2-1.2l-0.2,0.8L112,110.6"/>
		<path class="st36" d="M17.6,110.7l0.2,0.7l44.1-0.8l-0.4-0.7L17.6,110.7 M112,109.8l0.1-0.7l65.4-1.1l-0.2,0.7L112,109.8"/>
		<path class="st37" d="M17.5,110l0.2,0.7l44-0.8l-0.3-0.7L17.5,110 M112.2,109.1v-0.7l65.5-1.2l-0.1,0.8L112.2,109.1"/>
		<path class="st37" d="M17.3,109.3l0.2,0.7l43.8-0.8c-0.1-0.2-0.2-0.5-0.3-0.7L17.3,109.3 M112.2,108.4v-0.7l65.6-1.1l-0.1,0.7
			L112.2,108.4"/>
		<path class="st37" d="M17.1,108.6c0,0.2,0.1,0.5,0.2,0.7l43.7-0.7l-0.3-0.7L17.1,108.6 M112.1,107.6v-0.7l65.8-1.1l-0.1,0.7
			L112.1,107.6"/>
		<path class="st38" d="M17,107.9l0.1,0.7l43.5-0.8c-0.1-0.2-0.2-0.5-0.3-0.7L17,107.9 M112.1,106.2v0.7l65.8-1.2l0.1-0.7
			L112.1,106.2"/>
		<path class="st38" d="M16.8,107.1l0.1,0.7l43.4-0.8c-0.1-0.2-0.2-0.5-0.3-0.7L16.8,107.1 M112.1,105.5l0.1,0.7l65.9-1.2l0.1-0.7
			L112.1,105.5"/>
		<path class="st39" d="M16.7,106.4l0.1,0.7l43.3-0.8c-0.1-0.2-0.2-0.5-0.2-0.7L16.7,106.4 M112,104.8l0.1,0.7l66.1-1.2l0.2-0.7
			L112,104.8"/>
		<path class="st39" d="M16.6,105.7l0.1,0.7l43.2-0.8c-0.1-0.2-0.2-0.5-0.2-0.7L16.6,105.7 M111.9,104.1l0.1,0.7l66.3-1.2l0.1-0.7
			L111.9,104.1"/>
		<path class="st39" d="M16.5,105l0.1,0.7l43.1-0.8l-0.2-0.7L16.5,105 M111.8,103.4l0.1,0.7l66.5-1.2l0.1-0.7L111.8,103.4"/>
		<path class="st40" d="M16.3,104.3l0.1,0.7l43-0.8l-0.1-0.7L16.3,104.3 M111.6,102.6l0.2,0.7l66.7-1.2l0.1-0.8L111.6,102.6"/>
		<path class="st40" d="M16.2,103.6l0.1,0.7l43-0.7l-0.2-0.7L16.2,103.6 M111.4,101.9l0.2,0.7l66.9-1.2l0.1-0.7L111.4,101.9"/>
		<path class="st41" d="M16.1,102.9l0.1,0.7l42.9-0.8c-0.1-0.2-0.1-0.5-0.2-0.7L16.1,102.9 M111.3,101.2l0.2,0.7l67.2-1.2l0.1-0.7
			L111.3,101.2"/>
		<path class="st41" d="M16,102.2l0.1,0.7l42.9-0.7l-0.1-0.7L16,102.2 M111,100.5l0.2,0.7l67.4-1.2l0.1-0.8L111,100.5"/>
		<path class="st41" d="M15.9,101.4l0.1,0.8l42.8-0.8l-0.1-0.8L15.9,101.4 M110.8,99.8l0.3,0.7l67.8-1.2l0.1-0.8L110.8,99.8"/>
		<path class="st42" d="M15.9,100.7l0.1,0.7l42.8-0.8l-0.1-0.7L15.9,100.7 M110.5,99.1l0.3,0.7l68.1-1.2l0.1-0.7L110.5,99.1"/>
		<path class="st42" d="M15.8,100l0.1,0.7l42.8-0.7l-0.1-0.7L15.8,100 M110.2,98.4l0.3,0.7l68.4-1.2l0.1-0.7L110.2,98.4"/>
		<path class="st43" d="M15.7,99.3l0.1,0.7l42.8-0.7l-0.1-0.7L15.7,99.3 M109.9,97.7l0.3,0.7l68.8-1.2v-0.7L109.9,97.7"/>
		<path class="st43" d="M15.7,98.6l0.1,0.7l42.7-0.7l-0.1-0.7L15.7,98.6 M109.5,96.9l0.4,0.7l69.1-1.2v-0.8L109.5,96.9"/>
		<path class="st43" d="M15.6,97.9l0.1,0.7l42.7-0.7l-0.1-0.7L15.6,97.9 M109.1,96.2l0.4,0.7l69.5-1.2V95L109.1,96.2"/>
		<path class="st44" d="M15.5,97.2l0.1,0.7l42.7-0.8v-0.7L15.5,97.2 M108.7,95.6l0.4,0.7l70-1.2v-0.7L108.7,95.6"/>
		<path class="st44" d="M15.5,96.4v0.7l42.8-0.7v-0.7L15.5,96.4 M108.2,94.8l0.5,0.7l70.4-1.2v-0.7L108.2,94.8"/>
		<path class="st44" d="M15.5,95.7v0.7l42.8-0.7V95L15.5,95.7 M107.7,94.1l0.5,0.7l70.9-1.2v-0.7L107.7,94.1"/>
		<path class="st45" d="M15.4,95v0.7L58.2,95v-0.7L15.4,95 M107.1,93.4L107.1,93.4l0.6,0.7l71.4-1.2v-0.7L107.1,93.4"/>
		<path class="st45" d="M15.4,94.3V95l42.8-0.8v-0.7L15.4,94.3 M106.6,92.7l0.6,0.7l72-1.3v-0.7L106.6,92.7"/>
		<path class="st46" d="M15.4,93.6v0.7l42.8-0.7v-0.7L15.4,93.6 M105.9,92l0.6,0.7l72.6-1.3v-0.7L105.9,92"/>
		<path class="st46" d="M15.4,92.9v0.7l42.8-0.7v-0.8L15.4,92.9 M105.3,91.3L106,92l73.2-1.3V90L105.3,91.3"/>
		<path class="st46" d="M15.4,92.1v0.7l42.8-0.8v-0.7L15.4,92.1 M104.6,90.6l0.7,0.7l73.8-1.3v-0.7L104.6,90.6"/>
		<path class="st47" d="M15.4,91.9v0.3l42.9-0.8v-0.7l-42.9,0.8L15.4,91.9 M103.9,89.9l0.7,0.7l74.5-1.3v-0.7L103.9,89.9"/>
		<path class="st47" d="M15.4,91.5v-0.7L58.3,90v0.7L15.4,91.5 M103.2,89.2l0.7,0.7l75.1-1.4v-0.7L103.2,89.2"/>
		<path class="st48" d="M15.4,90.7V90l43-0.8v0.4V90L15.4,90.7 M102.5,88.5l0.8,0.7l75.8-1.3v-0.7L102.5,88.5"/>
		<path class="st48" d="M15.4,90v-0.7l43-0.8l-0.1,0.7L15.4,90 M101.7,87.8l0.8,0.7l76.5-1.3v-0.7L101.7,87.8"/>
		<path class="st48" d="M15.4,89.3v-0.7l43.1-0.8l-0.1,0.8L15.4,89.3 M101,87.1l0.8,0.7l77.1-1.4l-0.1-0.7L101,87.1"/>
		<path class="st49" d="M15.4,88.6v-0.8l43.1-0.8l-0.1,0.7L15.4,88.6 M100.3,86.4l0.8,0.7l77.8-1.4l-0.1-0.7L100.3,86.4"/>
		<path class="st49" d="M15.5,87.9v-0.7l43.2-0.8l-0.1,0.7L15.5,87.9 M99.5,85.7l0.8,0.7l78.6-1.4l-0.1-0.8L99.5,85.7"/>
		<path class="st50" d="M15.5,87.2v-0.7l43.2-0.8l-0.1,0.7L15.5,87.2 M98.8,85l0.8,0.7l79.2-1.4l-0.1-0.8L98.8,85"/>
		<path class="st50" d="M15.6,86.4l0.1-0.8l43.3-0.8l-0.1,0.7L15.6,86.4 M98.1,84.3c0.2,0.2,0.5,0.5,0.8,0.7l79.9-1.4l-0.1-0.7
			L98.1,84.3"/>
		<path class="st50" d="M15.6,85.7l0.1-0.7l43.4-0.8L58.9,85L15.6,85.7 M97.3,83.6c0.2,0.2,0.5,0.5,0.8,0.7l80.6-1.4l-0.1-0.7
			L97.3,83.6"/>
		<path class="st51" d="M15.7,85l0.1-0.7l43.5-0.8l-0.2,0.7L15.7,85 M96.7,82.9c0.2,0.2,0.5,0.5,0.7,0.7l81.1-1.4l-0.1-0.7
			L96.7,82.9"/>
		<path class="st51" d="M15.7,84.3l0.1-0.7l43.6-0.8l-0.2,0.7L15.7,84.3 M95.9,82.1c0.2,0.2,0.5,0.5,0.7,0.7l81.8-1.4l-0.1-0.7
			L95.9,82.1"/>
		<path class="st52" d="M15.8,83.6l0.1-0.7l43.7-0.8l-0.2,0.8L15.8,83.6 M95.3,81.4c0.2,0.2,0.4,0.5,0.7,0.7l82.3-1.4l-0.1-0.7
			l-83,1.4"/>
		<path class="st52" d="M15.9,82.8l0.1-0.7l43.8-0.8l-0.2,0.7L15.9,82.8 M94.6,80.7c0.2,0.2,0.4,0.5,0.7,0.7l82.9-1.5l-0.1-0.8
			L94.6,80.7"/>
		<path class="st52" d="M16,82.1l0.1-0.7l44-0.8l-0.2,0.7L16,82.1 M94.1,80c0.2,0.2,0.4,0.5,0.6,0.7l83.5-1.5l-0.1-0.8L94.1,80"/>
		<path class="st53" d="M16.1,81.4l0.1-0.7l44.1-0.8l-0.2,0.7L16.1,81.4 M93.5,79.3c0.2,0.2,0.4,0.5,0.6,0.7l83.9-1.5l-0.1-0.7
			L93.5,79.3"/>
		<path class="st53" d="M16.2,80.7l0.1-0.8l44.3-0.8l-0.3,0.8L16.2,80.7 M93,78.6c0.1,0.3,0.3,0.5,0.5,0.7l84.3-1.5l-0.1-0.7
			L93,78.6"/>
		<path class="st54" d="M16.3,80l0.1-0.8l44.4-0.8l-0.3,0.8L16.3,80 M92.7,77.9c0.1,0.3,0.3,0.5,0.4,0.7l84.7-1.5l-0.1-0.7
			L92.7,77.9"/>
		<path class="st54" d="M16.4,79.3l0.1-0.7l44.6-0.8l-0.3,0.8L16.4,79.3 M92.3,77.2c0.1,0.3,0.2,0.5,0.3,0.7l85-1.5l-0.2-0.7
			L92.3,77.2"/>
		<path class="st54" d="M16.5,78.6l0.1-0.7L61.4,77l-0.3,0.8L16.5,78.6 M92.2,76.5l0.1,0.4c0,0.1,0.1,0.2,0.1,0.4l85.1-1.5l-0.2-0.7
			L92.2,76.5"/>
		<path class="st55" d="M16.6,77.8l0.1-0.7l45-0.8L61.4,77L16.6,77.8 M92,75.8l0.2,0.7l85.1-1.5l-0.2-0.7L92,75.8"/>
		<path class="st55" d="M16.8,77.1l0.1-0.7l45.2-0.8l-0.3,0.8L16.8,77.1 M91.9,75.1l0.1,0.7l85.2-1.5l-0.2-0.8L91.9,75.1"/>
		<path class="st55" d="M16.9,76.4l0.1-0.8l45.4-0.8l-0.4,0.8L16.9,76.4 M91.7,74.3l0.1,0.7l85.1-1.5l-0.2-0.7L91.7,74.3"/>
		<path class="st56" d="M17,75.7l0.2-0.7l45.7-0.8l-0.4,0.7L17,75.7 M91.7,73.7c0,0.2,0.1,0.5,0.1,0.7l85.1-1.5l-0.2-0.7L91.7,73.7"
			/>
		<path class="st56" d="M17.2,75l0.2-0.7l45.9-0.8l-0.4,0.7L17.2,75 M91.6,73l0.1,0.7l85-1.5l-0.2-0.7L91.6,73"/>
		<path class="st57" d="M17.4,74.2l0.2-0.8l46.1-0.8l-0.4,0.8L17.4,74.2 M91.5,72.2l0.1,0.7l84.9-1.5l-0.2-0.7L91.5,72.2"/>
		<path class="st57" d="M17.5,73.6l0.2-0.8L64.1,72l-0.5,0.8L17.5,73.6 M91.5,71.6v0.7l84.7-1.6L176,70L91.5,71.6"/>
		<path class="st57" d="M17.7,72.8l0.2-0.7l46.7-0.8L64.1,72L17.7,72.8 M91.5,70.8v0.8L176,70l-0.2-0.7L91.5,70.8"/>
		<path class="st58" d="M17.9,72.1l0.2-0.8l47-0.8l-0.5,0.8L17.9,72.1 M91.5,70.8l84.4-1.5l-0.2-0.8l-84.1,1.5L91.5,70.8"/>
		<path class="st58" d="M18.1,71.4l0.2-0.8l47.3-0.8l-0.5,0.8L18.1,71.4 M91.5,70.1v-0.7l83.9-1.5l0.2,0.7L91.5,70.1"/>
		<path class="st59" d="M18.3,70.6l0.2-0.7l47.6-0.8l-0.6,0.8L18.3,70.6 M91.5,69.4l0.1-0.7l83.6-1.5l0.2,0.7L91.5,69.4"/>
		<path class="st59" d="M18.5,69.9l0.2-0.8l48-0.8l-0.6,0.8L18.5,69.9 M91.6,68.6l0.1-0.8l83.3-1.4l0.2,0.7L91.6,68.6"/>
		<path class="st59" d="M18.7,69.2l0.2-0.8l48.3-0.8l-0.6,0.8L18.7,69.2 M91.6,67.9l0.1-0.7l82.9-1.4l0.3,0.7L91.6,67.9"/>
		<path class="st60" d="M18.9,68.5l0.2-0.7l48.7-0.8l-0.6,0.8L18.9,68.5 M91.7,67.2l0.1-0.7l82.6-1.4l0.3,0.7L91.7,67.2"/>
		<path class="st60" d="M19.1,67.8l0.2-0.8l49.1-0.9l-0.7,0.8L19.1,67.8 M91.9,66.5l0.1-0.8l82.2-1.4l0.3,0.7L91.9,66.5"/>
		<path class="st61" d="M19.4,67l0.2-0.8l49.5-0.9l-0.7,0.8L19.4,67 M92,65.8l0.2-0.7l81.7-1.5l0.3,0.7L92,65.8"/>
		<path class="st61" d="M19.6,66.3l0.3-0.7l50-0.9l-0.7,0.8L19.6,66.3 M92.1,65.1l0.2-0.8l81.3-1.4l0.3,0.7L92.1,65.1"/>
		<path class="st61" d="M19.9,65.6l0.3-0.7l50.4-0.9l-0.7,0.8L19.9,65.6 M92.3,64.3l0.2-0.7l80.8-1.4l0.3,0.7L92.3,64.3"/>
		<path class="st62" d="M20.1,64.9l0.3-0.8l50.9-0.9L70.5,64L20.1,64.9 M92.5,63.6l0.2-0.7l80.3-1.4l0.3,0.7L92.5,63.6"/>
		<path class="st62" d="M20.4,64.2l0.3-0.8l51.4-0.8l-0.8,0.8L20.4,64.2 M92.7,62.9l0.2-0.7l79.8-1.4l0.3,0.7L92.7,62.9"/>
		<path class="st63" d="M20.7,63.4l0.3-0.8l52-0.9l-0.9,0.8L20.7,63.4 M92.9,62.2l0.3-0.8l79.2-1.4l0.3,0.7L92.9,62.2"/>
		<path class="st63" d="M21,62.7l0.3-0.8L73.8,61l-0.4,0.4l-0.5,0.4L21,62.7 M93.2,61.5l0.3-0.8l78.7-1.4l0.3,0.7L93.2,61.5"/>
		<path class="st63" d="M21.3,62l0.3-0.8l53.2-0.9l-1,0.8L21.3,62 M93.4,60.7l0.3-0.7l78-1.4l0.4,0.7L93.4,60.7"/>
		<path class="st64" d="M21.6,61.3l0.3-0.8l53.9-1c-0.4,0.2-0.7,0.5-1,0.8L21.6,61.3 M93.7,60c0.1-0.2,0.2-0.5,0.3-0.8l77.4-1.3
			l0.4,0.7L93.7,60"/>
		<path class="st64" d="M21.9,60.6l0.3-0.8l54.7-1c-0.4,0.2-0.7,0.5-1.1,0.8L21.9,60.6 M94,59.3l0.3-0.7l76.7-1.3l0.4,0.7L94,59.3"
			/>
		<path class="st65" d="M22.2,59.8l0.3-0.7l55.5-1l-1.2,0.8L22.2,59.8 M94.4,58.6c0.1-0.2,0.2-0.5,0.4-0.8l76-1.3l0.4,0.7L94.4,58.6
			"/>
		<path class="st65" d="M22.5,59.1l0.4-0.8l56.4-1c-0.4,0.2-0.8,0.5-1.3,0.8L22.5,59.1 M94.7,57.9l0.4-0.8l75.3-1.3l0.4,0.8
			L94.7,57.9"/>
		<path class="st65" d="M22.8,58.4l0.4-0.8l57.4-1c-0.5,0.2-0.9,0.5-1.4,0.8L22.8,58.4 M95.1,57.1l0.4-0.8l74.5-1.3l0.4,0.7
			L95.1,57.1"/>
		<path class="st66" d="M23.2,57.7l0.4-0.8l58.5-1c-0.5,0.2-1,0.5-1.5,0.8L23.2,57.7 M95.5,56.4l0.4-0.8l73.7-1.3l0.4,0.7L95.5,56.4
			"/>
		<path class="st66" d="M23.5,56.9l0.4-0.7l59.7-1c-0.5,0.2-1.1,0.5-1.6,0.8L23.5,56.9 M95.9,55.7l0.4-0.8l72.9-1.3l0.4,0.7
			L95.9,55.7"/>
		<path class="st66" d="M23.9,56.2l0.4-0.7l61-1.1c-0.6,0.2-1.2,0.5-1.8,0.8L23.9,56.2 M96.3,55l0.5-0.8l72-1.3l0.4,0.7L96.3,55"/>
		<path class="st67" d="M24.3,55.5l0.4-0.8l62.6-1.1c-0.7,0.2-1.3,0.5-2,0.8L24.3,55.5 M96.8,54.2c0.2-0.3,0.3-0.5,0.5-0.8l71.1-1.2
			l0.4,0.7L96.8,54.2"/>
		<path class="st67" d="M24.7,54.8l0.4-0.8l64.4-1.1c-0.7,0.2-1.5,0.5-2.3,0.8L24.7,54.8 M97.3,53.6l0.5-0.8l70.2-1.2l0.4,0.7
			L97.3,53.6"/>
		<path class="st68" d="M25.1,54l0.4-0.8l66.6-1.2c-0.8,0.2-1.8,0.5-2.7,0.8L25.1,54 M97.8,52.8l0.5-0.8l69.3-1.2l0.4,0.7L97.8,52.8
			"/>
		<path class="st68" d="M25.5,53.3l0.4-0.8l73.3-1.2c-1,0.2-0.1,1.1-1.4,1.5L25.5,53.3 M98.3,52.1l0.6-0.8l68.2-1.2l0.5,0.7
			L98.3,52.1"/>
		<path class="st68" d="M95.2,51.4l-69.3,1.2l0.4-0.7l140.4-2.5l0.5,0.7l-68.3,1.2"/>
		<path class="st68" d="M98.9,51.3"/>
		<path class="st69" d="M26.3,51.9l0.4-0.7l139.5-2.4l0.5,0.7L26.3,51.9"/>
		<path class="st69" d="M26.7,51.2l0.5-0.8L165.8,48l0.5,0.7L26.7,51.2"/>
		<path class="st70" d="M27.2,50.4l0.5-0.8l137.7-2.4l0.5,0.7L27.2,50.4"/>
		<path class="st70" d="M27.6,49.7l0.5-0.7l136.7-2.4l0.5,0.7L27.6,49.7"/>
		<path class="st70" d="M28.1,49l0.5-0.8l135.7-2.4l0.5,0.7L28.1,49"/>
		<path class="st71" d="M28.6,48.3l0.5-0.8l134.7-2.4l0.5,0.7L28.6,48.3"/>
		<path class="st71" d="M29,47.6l0.5-0.8l133.8-2.3l0.5,0.7L29,47.6"/>
		<path class="st72" d="M29.5,46.8l0.5-0.8l132.7-2.3l0.5,0.7L29.5,46.8"/>
		<path class="st72" d="M30,46.1l0.5-0.8L162.2,43l0.6,0.7L30,46.1"/>
		<path class="st72" d="M30.2,45.8c4.3-6.1,9.5-11.5,15.3-16.1l101.1-1.8c6,4.5,11.4,9.7,15.9,15.6L30.2,45.8"/>
		<path class="st72" d="M45.6,29.7c10.5-8.3,22.8-14,35.9-16.5l28.5-0.5c13.2,2,25.8,7.3,36.6,15.2L45.6,29.7"/>
		<g>
			<path class="st73" d="M56.5,93.9C56.5,72,74.6,54.2,97,54.2s40.5,17.8,40.5,39.7s-18.2,39.7-40.5,39.7S56.5,115.8,56.5,93.9"/>
			<path class="st74" d="M82.6,90.3c0-1.7,0.9-3,2.1-3s2.1,1.3,2.1,3s-0.9,3-2.1,3S82.7,91.9,82.6,90.3"/>
			<path class="st73" d="M56.5,93.9C56.5,72,74.6,54.2,97,54.2s40.5,17.8,40.5,39.7s-18.2,39.7-40.5,39.7S56.5,115.8,56.5,93.9"/>
			<path class="st73" d="M56.5,93.9C56.5,72,74.6,54.2,97,54.2s40.5,17.8,40.5,39.7s-18.2,39.7-40.5,39.7S56.5,115.8,56.5,93.9"/>
			<path class="st73" d="M56.5,93.9C56.5,72,74.6,54.2,97,54.2s40.5,17.8,40.5,39.7s-18.2,39.7-40.5,39.7S56.5,115.8,56.5,93.9"/>
			<path class="st72" d="M57.7,93.5c0-1.2,0-2.5,0.1-3.8c0.9-15.2,11.1-25,15.1-28.2c11.5-9.4,26-10.7,26-10.7s-7.8,8.5-7.9,19.7
				c0,2.2,0.2,4.3,0.8,6.4c1.1,4.3,10.1,10.5,15,16.6c9.2,11.6,4.2,27.3-3.9,32.7c-0.3,0.2-0.5,0.3-0.8,0.5
				c-1.1,0.7-2.3,1.2-3.5,1.7c-0.9,0.3-1.9,0.6-2.8,0.8c-0.6,0.1-1.2,0.2-1.8,0.3c-0.4,0.1-0.8,0.1-1.1,0.1c-1,0.1-2,0.2-3.1,0.1
				c-1.4,0-2.8-0.1-4.2-0.3c-2.5-0.4-4.9-1.1-7.2-2.1c-0.3-0.1-0.7-0.3-1-0.4c-0.7-0.3-1.3-0.6-2-1c-1-0.5-1.9-1.1-2.8-1.8
				c-1.5-1.1-3-2.4-4.3-3.7c-0.3-0.3-0.5-0.6-0.8-0.9c-0.9-1-1.7-2.1-2.5-3.1c-0.8-1-1.5-2.1-2.1-3.1c-1-1.7-1.9-3.4-2.6-5.2
				c-1.5-3.9-2.4-8.1-2.5-12.3C57.8,95.1,57.7,94.3,57.7,93.5"/>
			<path class="st72" d="M57.7,91.8c0-0.7,0-1.4,0.1-2.2c0.9-15.2,11.1-25,15.1-28.2c0.3-0.3,0.7-0.5,1-0.8l0.2-0.2l0.9-0.7l0.1-0.1
				c0.3-0.2,0.7-0.5,1-0.7l0.1-0.1l0.2-0.2c0.4-0.3,0.8-0.5,1.3-0.8l0.4-0.2l0.5-0.3c0.6-0.4,1.2-0.7,1.9-1l0.4-0.2l0.6-0.3l0.4-0.2
				c0.7-0.3,1.3-0.6,1.9-0.9l0.3-0.1l0.7-0.3l0.5-0.2c0.9-0.4,1.8-0.7,2.6-1c0.1,0,0.1,0,0.2-0.1c0.6-0.2,1.1-0.4,1.6-0.5l0.5-0.1
				c0.5-0.2,1.1-0.3,1.6-0.4c1.5,0.6,3,1.4,4.4,2.4l-0.5,0.7l-0.1,0.2c-0.6,1.1-1.2,2.2-1.8,3.3l-0.1,0.2c-0.5,1.1-1,2.2-1.3,3.4
				l0,0c-0.2,0.4-0.3,0.9-0.4,1.3l-0.1,0.2c-0.2,0.7-0.3,1.4-0.5,2.1l-0.1,0.3l-0.1,0.4l-0.1,0.4l-0.1,0.5L91.1,68l-0.1,0.6v0.2v0.7
				v0.2v0.7V71c0,0.4,0,0.8,0,1.2v0.3v0.4l0.1,0.6V74c0,0.3,0.1,0.5,0.1,0.8v0.1c0.1,0.3,0.1,0.6,0.2,1l0,0c0.1,0.3,0.2,0.7,0.2,1
				c1.1,4.3,10.1,10.5,15,16.6l0.6,0.8c1.5,2,2.6,4.3,3.3,6.7c-3,15.6-12.3,27.3-23.7,28.7c0,0-0.1,0-0.1,0c-0.3,0-0.5-0.1-0.8-0.1
				c-0.1,0-0.2,0-0.3,0c-0.2,0-0.5-0.1-0.8-0.1s-0.2,0-0.3-0.1c-0.1-0.1-0.4-0.1-0.6-0.1c-0.2,0-0.3-0.1-0.4-0.1
				c-0.2,0-0.4-0.1-0.6-0.1s-0.4-0.1-0.6-0.2c-0.2-0.1-0.2-0.1-0.3-0.1s-0.4-0.1-0.6-0.2c-0.2-0.1-0.5-0.1-0.7-0.2s-0.3-0.1-0.4-0.1
				s-0.2-0.1-0.3-0.1c-0.6-0.2-1.2-0.4-1.8-0.7c-0.1,0-0.2-0.1-0.3-0.1c-0.2-0.1-0.5-0.2-0.7-0.3s-0.2-0.1-0.3-0.1
				c-0.6-0.3-1.1-0.6-1.7-0.9c-0.1-0.1-0.3-0.2-0.4-0.2s-0.4-0.2-0.6-0.4l0,0c-0.6-0.4-1.2-0.8-1.8-1.2l-0.3-0.2
				c-1.2-0.8-2.2-1.8-3.2-2.8c-0.6-0.5-1.1-1.1-1.6-1.7c-0.4-0.5-0.9-1-1.3-1.5c-0.2-0.2-0.3-0.4-0.5-0.6l-0.1-0.1
				c-0.2-0.3-0.5-0.6-0.7-1l-0.3-0.4l-0.5-0.7l-0.2-0.3c-0.7-1-1.3-2-1.9-3C59.4,105.7,57.9,98.8,57.7,91.8"/>
			<path class="st70" d="M58.4,90.3c0-2.5,0.2-5,0.5-7.4c0.5-1.9,1.1-3.8,1.9-5.6v-0.1c0.4-1,0.9-2,1.4-2.9l0.1-0.2
				c1.1-2,2.4-4,3.8-5.8l0.1-0.2c0.7-0.9,1.5-1.8,2.2-2.5l0.2-0.2c0.5-0.6,1.1-1.1,1.6-1.6l0.7-0.6l0.1-0.1l0.6-0.6
				c0.4-0.4,0.8-0.7,1.2-1s0.7-0.6,1.1-0.8l0.1-0.1c0.3-0.2,0.6-0.5,0.9-0.7l0.1-0.1c0.3-0.2,0.7-0.5,1-0.7s1-0.7,1.5-1l0.4-0.2
				l0.6-0.3c0.6-0.3,1.2-0.7,1.8-1l0.5-0.2l0.8-0.4l0.3-0.1c2.7-1.3,5.5-2.4,8.3-3.2c2,0.6,3.8,1.5,5.5,2.7l-0.1,0.2
				c-0.2,0.4-0.5,0.9-0.8,1.3L94.7,57c-0.4,0.8-0.8,1.6-1.2,2.4l0,0c-0.4,0.9-0.7,1.8-1,2.7l-0.1,0.2l-0.2,0.6l0,0L92,63.6l-0.2,0.7
				v0.1v0.1c-0.2,0.7-0.3,1.5-0.4,2.2V67l-0.1,0.6V68l-0.1,0.6v0.2c0,0.2,0,0.5-0.1,0.7c0,0.3,0,0.6,0,0.9c0,0.9,0,1.8,0.1,2.7
				c0.1,1.3,0.3,2.5,0.7,3.7c1.1,4.3,10.1,10.5,15,16.6c0.8,1.1,1.6,2.2,2.3,3.4l0.1,0.2l0.3,0.7l0.1,0.3l0.3,0.6l0.1,0.3l0.3,0.7
				l0,0c-2.8,16.8-13.2,29.2-25.5,29.2c-1.1,0-2.2-0.1-3.3-0.3c-0.3-0.1-0.7-0.2-1-0.3c-0.5-0.2-1-0.4-1.6-0.6
				c-0.2-0.1-0.3-0.1-0.5-0.2h-0.1c-0.3-0.1-0.6-0.3-1-0.4c-0.9-0.4-1.9-0.9-2.8-1.5c0,0-0.1,0-0.1,0c-1.9-1.2-3.7-2.6-5.3-4.2
				c-0.3-0.3-0.5-0.5-0.8-0.8c-6-7.1-9.9-17.9-9.9-30.2"/>
			<path class="st67" d="M59.1,90.3c0-4.1,0.5-8.2,1.4-12.2c1.1-2.7,2.5-5.2,4.1-7.6l0,0c0.3-0.5,0.7-1,1-1.4l0.3-0.4
				c0.3-0.4,0.6-0.8,1-1.2l0,0c0.5-0.6,1-1.2,1.5-1.8c0.3-0.3,0.6-0.7,0.9-1l0.3-0.3l0.3-0.3c0.6-0.6,1.1-1.1,1.6-1.5s0.8-0.7,1.2-1
				s0.7-0.5,1-0.8l0.2-0.1c0.3-0.2,0.6-0.4,0.8-0.6l0.2-0.1c0.6-0.4,1.3-0.9,1.9-1.3l0.6-0.3c1-0.6,1.8-1.1,2.8-1.6l0.6-0.3
				c1-0.5,2-1,3-1.4h0.1l0.9-0.4l0.3-0.1l0.4-0.2l0.7-0.3l0.8-0.3c0.4-0.1,0.8-0.3,1.1-0.4l0,0c2.5,0.5,4.8,1.5,6.9,2.9l-0.4,0.6
				v0.1l-0.3,0.5l-0.1,0.2c-0.4,0.7-0.7,1.4-1,2.2L93.3,60l-0.1,0.4L93,60.8c-0.2,0.5-0.4,1-0.6,1.5l-0.2,0.6v0.1l-0.2,0.5L92,64.1
				l-0.1,0.3L91.8,65l-0.1,0.3l-0.1,0.4c-0.1,0.3-0.1,0.6-0.2,0.9l-0.1,0.4l-0.1,0.5V68c-0.1,0.8-0.2,1.6-0.2,2.5
				c0,0.9,0,1.8,0.1,2.7c0.1,1.3,0.3,2.5,0.7,3.7c1.1,4.3,10.1,10.5,15,16.6c1,1.2,1.8,2.5,2.5,3.8l0.1,0.2l0.2,0.5l0.1,0.3
				c-2.5,16.8-12.8,29.4-25,29.4c-14.1,0-25.6-16.8-25.6-37.5"/>
			<path class="st65" d="M59.8,90.3c0-5.5,0.8-10.9,2.6-16.2c1.7-3.1,3.8-6,6.2-8.6l0.2-0.2c0.5-0.6,1.1-1.1,1.6-1.6
				c0.5-0.5,0.9-0.8,1.3-1.2s0.9-0.8,1.2-1.1c0.7-0.5,1.3-1.1,2-1.6l0.3-0.2l0.8-0.5c0.3-0.2,0.6-0.4,0.9-0.6l0.1,0l0.6-0.4l0.5-0.3
				l0.5-0.3l1.1-0.6c0.4-0.2,0.9-0.5,1.3-0.7c0.6-0.3,1.2-0.6,1.8-0.9c0.1,0,0.2-0.1,0.3-0.1l0.7-0.3l0.3-0.1l0.8-0.3
				c0.4-0.2,0.8-0.3,1.2-0.5c3,0.3,5.9,1.3,8.5,3c-0.5,0.9-0.9,1.8-1.4,2.9L92.9,61c-0.2,0.5-0.4,1-0.5,1.5l-0.1,0.2l-0.2,0.6
				L92,63.5l-0.2,0.8l0,0l-0.1,0.5c-0.2,0.7-0.3,1.3-0.4,2V67l-0.1,0.5L91.2,68l-0.1,0.6v0.2c0,0.5-0.1,1.1-0.1,1.7
				c0,0.9,0,1.8,0.1,2.7c0.1,1.3,0.3,2.5,0.7,3.7c1.1,4.3,10.1,10.5,15,16.6c0.4,0.5,0.7,0.9,1,1.4l0.1,0.1c0.5,0.7,0.9,1.5,1.3,2.2
				c-2.2,16.8-12.3,29.6-24.5,29.6C71,126.8,59.9,110.4,59.8,90.3"/>
			<path class="st63" d="M60.5,90.3c-0.1-6.8,1.3-13.6,4.1-19.8l0.2-0.2l0.4-0.6l0.2-0.2l0.3-0.4c0.3-0.4,0.6-0.7,0.8-1.1l0.3-0.4
				l0.2-0.2l0.3-0.4l0.3-0.3l0.1-0.1l0.4-0.5l0,0c0.6-0.7,1.2-1.3,1.8-1.9l0.3-0.3c0.5-0.5,1-1,1.5-1.4s0.8-0.7,1.2-1s0.6-0.5,1-0.8
				l0.3-0.2l0.6-0.5l0.3-0.3c0.6-0.5,1.3-0.9,1.9-1.3l0.4-0.2c2.1-1.3,4.2-2.4,6.4-3.3c0.3,0,0.5,0,0.8,0c3.4,0,6.7,1,9.6,2.9
				c-0.3,0.7-0.7,1.3-1,2.1c-0.2,0.5-0.4,0.9-0.6,1.4s-0.3,0.9-0.5,1.4l-0.1,0.2l-0.1,0.4l-0.2,0.6l-0.1,0.3l-0.1,0.5l-0.2,0.9l0,0
				c-0.1,0.3-0.1,0.5-0.2,0.8l-0.1,0.7v0.2l-0.1,0.5l-0.1,0.6v0.4v0.4v0.6c0,0.3,0,0.6,0,0.9c0,0.9,0,1.8,0.1,2.7
				c0.1,1.3,0.3,2.5,0.7,3.7c1.1,4.3,10.1,10.5,15,16.6c0.7,0.9,1.3,1.8,1.8,2.7c-1.9,16.8-11.9,29.6-23.9,29.6
				c-13.4,0-24.2-15.9-24.2-35.5"/>
			<path class="st60" d="M61.2,90.3c0-9.2,2.4-17.5,6.4-23.7c0.7-0.8,1.3-1.5,1.9-2.1l0.2-0.2l0.4-0.4l0.3-0.3l0.1-0.1l0.3-0.2
				l0.2-0.2l0.4-0.4c0.5-0.5,1-0.9,1.4-1.2s0.7-0.5,1-0.8l0.3-0.2c1-0.7,2-1.4,3-2.1l0.4-0.2c1.1-0.7,2.2-1.3,3.2-1.8
				c1.3-0.3,2.6-0.5,3.9-0.5c3.3,0,6.4,1,9.2,2.8l-0.1,0.2l-0.2,0.5l-0.1,0.2l-0.1,0.2c-0.3,0.6-0.5,1.2-0.7,1.8l-0.1,0.4L92.5,62
				l-0.1,0.4c-0.2,0.5-0.3,0.9-0.4,1.4v0.2c-0.2,0.6-0.3,1.3-0.4,2l-0.1,0.4l-0.1,0.7v0.1l-0.1,0.7V68l-0.1,0.7l0,0l-0.1,0.8
				c0,0.3,0,0.6,0,0.9c0,0.9,0,1.8,0.1,2.7c0.1,1.3,0.3,2.5,0.7,3.7c1.1,4.3,10.1,10.5,15,16.6c0.4,0.6,0.9,1.2,1.2,1.7
				c-1.6,16.7-11.4,29.5-23.3,29.5c-13,0-23.5-15.4-23.5-34.5"/>
			<path class="st58" d="M91,70.4c0-0.3,0-0.6,0-0.9v-0.7v-0.2v-0.5l0.2-0.5l0.1-0.4l0.1-0.5l0.1-0.5V66c0.1-0.6,0.3-1.2,0.4-1.9
				l0.1-0.4c0.1-0.2,0.1-0.5,0.2-0.7l0,0l0.2-0.6l0.1-0.3l0.2-0.4l0.1-0.4c0.2-0.6,0.5-1.2,0.7-1.8l0.1-0.1
				c-2.6-1.7-5.7-2.5-8.8-2.6c-12.6,0-22.8,15-22.8,33.5s10.2,33.5,22.8,33.5c11.7,0,21.3-12.8,22.7-29.4l-0.6-0.8
				c-4.9-6.2-13.8-12.3-15-16.6c-0.3-1.2-0.6-2.5-0.7-3.7c-0.1-0.9-0.1-1.8-0.1-2.7"/>
			<path class="st56" d="M91,70.4c0-0.3,0-0.6,0-0.9V69v-0.5v-0.3l0.1-0.6l0.1-0.5l0.1-0.4l0.1-0.4l0.3-0.8l0,0
				c0.3-1.5,0.7-3,1.3-4.4l0.1-0.2l0.2-0.5l0.1-0.2c-2.5-1.6-5.4-2.4-8.4-2.4c-12.2,0-22.1,14.5-22.1,32.5s9.9,32.5,22.1,32.5
				c11.5,0,20.9-12.8,22-29.2l0,0c-4.9-6.2-13.8-12.3-15-16.6c-0.3-1.2-0.6-2.5-0.7-3.7C91,72.2,90.9,71.3,91,70.4"/>
			<path class="st54" d="M91,70.4c0-0.3,0-0.6,0-0.9c0-0.5,0.1-0.9,0.1-1.4l0.1-0.5v-0.2l0.1-0.7l0.1-0.3l0.1-0.5l0.1-0.5l0.1-0.5
				l0.1-0.4c0.3-1.2,0.7-2.3,1.1-3.4c-2.4-1.5-5.2-2.3-8.1-2.3c-11.8,0-21.4,14.1-21.4,31.4s9.6,31.4,21.4,31.4
				c11.3,0,20.5-12.8,21.4-29l-0.1-0.1c-2.6-3-5.9-5.9-8.7-8.7l0,0c-1.1-1-2.1-2-2.9-3c-0.4-0.4-0.7-0.8-1-1.2
				c-0.5-0.7-1-1.4-1.4-2.2c-0.1-0.2-0.2-0.5-0.3-0.7c-0.3-1.2-0.6-2.5-0.7-3.7C91,72.2,91,71.3,91,70.4"/>
			<path class="st51" d="M91,70.4c0-0.3,0-0.6,0-0.9v-0.6v-0.3l0.1-0.5v-0.4l0.1-0.6v-0.1c0.1-0.8,0.3-1.6,0.4-2.3
				c0.1-0.6,0.3-1.2,0.5-1.7v-0.1l0.2-0.8c-2.3-1.4-5-2.2-7.8-2.2c-11.5,0-20.8,13.6-20.8,30.4s9.3,30.4,20.8,30.4
				c11.3,0,20.3-12.7,20.9-28.7c-0.3-0.4-0.7-0.7-1-1.1l-0.2-0.2c-3.3-3.5-7.3-6.8-9.9-9.8c0,0-0.1-0.1-0.1-0.1
				c-0.2-0.3-0.5-0.5-0.7-0.8c-0.4-0.5-0.8-1-1.1-1.6c-0.2-0.2-0.3-0.5-0.4-0.8c-0.1-0.3-0.2-0.6-0.3-0.8c-0.3-1.2-0.6-2.5-0.7-3.7
				C91,72.2,91,71.3,91,70.4"/>
			<path class="st49" d="M91,70.4c0-0.3,0-0.6,0-1c0-0.5,0.1-1,0.1-1.6v-0.2l0.1-0.6l0.1-0.5v-0.3l0.1-0.6l0.1-0.3
				c0.2-0.8,0.4-1.6,0.6-2.4V63c-2.3-1.4-4.8-2.1-7.5-2.1c-11.1,0-20.1,13.2-20.1,29.4s9,29.4,20.1,29.4c10.9,0,19.7-12.7,20-28.5
				c-0.7-0.8-1.5-1.5-2.2-2.3l-2-1.9l-1.3-1.3c-2-1.8-3.8-3.7-5.5-5.7l-0.2-0.2c-0.6-0.8-1.2-1.6-1.5-2.6c-0.1-0.1-0.1-0.3-0.1-0.4
				c-0.3-1.2-0.6-2.5-0.7-3.7C91,72.2,91,71.3,91,70.4"/>
			<path class="st47" d="M91,70.4c0-0.8,0.1-1.7,0.2-2.5v-0.1l0.1-0.8v-0.1l0.1-0.7V66l0.1-0.5l0.1-0.4l0.1-0.3l0.2-0.8
				c-2.2-1.3-4.7-2-7.2-2c-10.7,0-19.4,12.7-19.4,28.4s8.7,28.4,19.4,28.4s19.4-12.6,19.4-28.2c-3.6-3.7-8-7.3-10.5-10.4
				c-0.2-0.2-0.3-0.4-0.4-0.6l-0.2-0.3l-0.1-0.2c-0.3-0.5-0.6-1-0.8-1.6c-0.1-0.2-0.1-0.4-0.2-0.6c-0.3-1.2-0.6-2.5-0.7-3.7
				C91,72.3,91,71.4,91,70.4"/>
			<path class="st44" d="M91,70.4c0-1.1,0.1-2.2,0.3-3.3l0.1-0.3v-0.3l0.1-0.7v-0.2l0.1-0.5v-0.2c-2.1-1.3-4.5-2-7-2
				c-10.3,0-18.7,12.3-18.7,27.4s8.4,27.4,18.7,27.4s18.9-12.2,18.9-27.3v-0.5l-0.7-0.7c-0.7-0.7-1.4-1.4-2.1-2l-0.3-0.3l-1.8-1.7
				c0,0-0.1-0.1-0.1-0.1c-0.2-0.2-0.5-0.5-0.7-0.7s-0.7-0.6-1-0.9c-0.8-0.8-1.6-1.6-2.3-2.4l-0.1-0.1c-0.2-0.3-0.5-0.6-0.7-0.8
				s-0.4-0.5-0.6-0.8l-0.1-0.2L92.7,79c-0.3-0.4-0.5-0.9-0.7-1.4c-0.1-0.2-0.2-0.5-0.3-0.7c-0.3-1.2-0.6-2.5-0.7-3.7
				C91,72.2,91,71.3,91,70.4"/>
			<path class="st42" d="M91,70.4c0-0.4,0-0.7,0-1.1v-0.2l0.1-0.8V68c0.1-0.7,0.2-1.4,0.3-2.1l0,0c-2-1.2-4.4-1.9-6.8-1.9
				c-9.9,0-18,11.8-18,26.4s8.1,26.4,18,26.4s18-11.8,18-26.4v-1.2l-1.5-1.4l-0.8-0.7l-1.2-1.1c-0.7-0.6-1.3-1.2-1.9-1.8L97,83.8
				l-0.3-0.3c-0.3-0.3-0.6-0.6-0.9-0.9l-0.2-0.2c-0.3-0.3-0.6-0.6-0.9-0.9l0,0c-0.2-0.2-0.4-0.5-0.6-0.7c-0.4-0.5-0.8-1-1.2-1.5
				c-0.3-0.5-0.6-1-0.9-1.5c-0.1-0.3-0.2-0.6-0.3-0.8c-0.3-1.2-0.6-2.5-0.7-3.7C91,72.2,90.9,71.3,91,70.4"/>
			<path class="st40" d="M91,70.4c0-0.3,0-0.7,0-1v-0.5v-0.6v-0.4l0.1-1v-0.1c-2-1.2-4.3-1.9-6.6-1.9c-9.6,0-17.3,11.3-17.3,25.4
				s7.8,25.4,17.3,25.4s17.3-11.3,17.3-25.4c0-0.6,0-1.3-0.1-1.9c-2.7-2.6-5.5-5.1-7.5-7.3L94,80.7c-0.2-0.2-0.3-0.4-0.5-0.6
				l-0.3-0.4c-0.7-0.8-1.2-1.8-1.6-2.9c-0.3-1.2-0.6-2.5-0.7-3.7c-0.1-0.9-0.1-1.8-0.1-2.7"/>
			<path class="st37" d="M91,70.4c0-0.9,0.1-1.7,0.2-2.5C89.2,66.6,87,66,84.7,66c-9.2,0-16.6,10.9-16.6,24.3s7.4,24.3,16.6,24.3
				s16.6-10.9,16.6-24.3c0-0.9,0-1.7-0.1-2.6c-1.6-1.5-3.1-2.9-4.5-4.3c-0.3-0.3-0.5-0.5-0.8-0.8s-0.4-0.4-0.6-0.6
				c-0.7-0.7-1.2-1.3-1.8-2c-0.2-0.2-0.3-0.4-0.4-0.6l-0.2-0.3L92.8,79c-0.3-0.5-0.6-1-0.8-1.6c-0.1-0.2-0.1-0.4-0.2-0.6
				c-0.3-1.2-0.6-2.5-0.7-3.7C91,72.2,91,71.3,91,70.4"/>
			<path class="st35" d="M91,70.4c0-0.3,0-0.5,0-0.8v-0.5v-0.2c-1.9-1.2-4.1-1.9-6.3-2c-8.7,0-15.8,10.5-15.8,23.3
				s7.1,23.3,15.9,23.3s15.9-10.5,15.9-23.3c0-1.1-0.1-2.2-0.2-3.3c-2.5-2.2-4.8-4.5-6.9-7l-0.1-0.2c-0.5-0.6-1-1.4-1.3-2.1
				c-0.1-0.3-0.2-0.6-0.3-0.9c-0.3-1.2-0.6-2.5-0.7-3.7C91,72.2,91,71.3,91,70.4"/>
			<path class="st33" d="M91,70.4V70c-1.9-1.3-4-2-6.3-2c-8.4,0-15.2,10-15.2,22.3s6.8,22.3,15.2,22.3s15.2-10,15.2-22.3
				c0-1.3-0.1-2.7-0.2-4C96.2,83,93,80,92,77.5c-0.1-0.2-0.2-0.4-0.2-0.6c-0.3-1.2-0.6-2.5-0.7-3.7C91,72.2,91,71.3,91,70.4"/>
			<path class="st30" d="M70.2,90.3c0-11.8,6.5-21.3,14.5-21.3c2.3,0,4.5,0.8,6.3,2.1c0,0.6,0,1.2,0.1,1.7V73c0,0.6,0.1,1.2,0.2,1.8
				v0.1c0.1,0.7,0.2,1.3,0.4,1.9c0.1,0.2,0.1,0.4,0.2,0.6c0.3,0.8,0.8,1.5,1.3,2.1c0.1,0.2,0.3,0.4,0.4,0.6c1,1.3,2.2,2.5,3.4,3.6
				l0.4,0.4c0.3,0.3,0.6,0.6,1,0.9c0.2,0.2,0.3,0.3,0.5,0.5c0.2,1.6,0.4,3.2,0.4,4.8c0,11.8-6.5,21.3-14.5,21.3S70.2,102,70.2,90.3"
				/>
			<path class="st28" d="M70.9,90.3c0-11.2,6.2-20.3,13.8-20.3c2.3,0,4.5,0.8,6.3,2.2v0.4c0.1,0.9,0.2,1.8,0.3,2.7
				c0.1,0.5,0.2,1,0.3,1.5c0.1,0.2,0.2,0.5,0.3,0.7c0.8,1.9,2.8,4,5.2,6.3l0.1,0.1l0.7,0.7c0.4,1.9,0.5,3.7,0.5,5.6
				c0,11.2-6.2,20.3-13.8,20.3S70.9,101.5,70.9,90.3"/>
			<path class="st26" d="M71.6,90.3c0-10.6,5.9-19.3,13.2-19.3c2.4,0,4.6,0.9,6.4,2.5l0,0c0,0.3,0.1,0.6,0.1,1v0.2l0.1,0.7l0.1,0.4
				c0.1,0.3,0.2,0.7,0.2,1c0.1,0.3,0.2,0.6,0.3,0.8c0.2,0.4,0.5,0.9,0.8,1.2v0.1c0.1,0.1,0.2,0.2,0.2,0.3l0.1,0.1l0.3,0.4l0.1,0.1
				c1.1,1.4,2.3,2.6,3.6,3.8c0.5,2.1,0.8,4.3,0.8,6.5c0,10.6-5.9,19.3-13.1,19.3S71.6,100.9,71.6,90.3"/>
			<path class="st24" d="M72.2,90.3c0-10.1,5.6-18.3,12.5-18.3c2.5,0.1,4.8,1.1,6.6,2.8v0.1l0.1,0.3c0.1,0.5,0.2,1.1,0.4,1.6
				c0.1,0.2,0.1,0.4,0.2,0.6c0.4,0.9,0.9,1.7,1.5,2.4l0.2,0.2l0.3,0.4c0.3,0.4,0.6,0.7,1,1.1s0.4,0.4,0.6,0.7l0.5,0.5
				c0.7,2.4,1.1,5,1.1,7.5c0,10.1-5.6,18.3-12.5,18.3S72.2,100.4,72.2,90.3"/>
			<path class="st21" d="M72.9,90.3c0-9.5,5.3-17.2,11.8-17.2c2.7,0.1,5.2,1.3,6.9,3.3l0.1,0.5c0.1,0.3,0.2,0.6,0.3,0.8
				c0.7,1.4,1.6,2.6,2.7,3.7l0,0l0.1,0.1c1.1,2.8,1.7,5.8,1.7,8.8c0,9.5-5.3,17.3-11.8,17.3S72.9,99.9,72.9,90.3"/>
			<path class="st19" d="M73.6,90.3c0-9,5-16.2,11.1-16.2s11.1,7.3,11.1,16.2s-5,16.3-11.1,16.3S73.6,99.3,73.6,90.3"/>
			<path class="st17" d="M74.3,90.3c0-8.4,4.6-15.2,10.4-15.2s10.4,6.8,10.4,15.2s-4.6,15.2-10.4,15.2S74.3,98.7,74.3,90.3"/>
			<path class="st14" d="M75,90.3c0-7.8,4.3-14.2,9.7-14.2s9.7,6.4,9.7,14.2s-4.3,14.2-9.7,14.2S75,98.2,75,90.3"/>
			<path class="st12" d="M75.7,90.3c0-7.3,4-13.2,9-13.2s9,5.9,9,13.2s-4,13.2-9,13.2S75.7,97.6,75.7,90.3"/>
			<path class="st10" d="M76.4,90.3c0-6.7,3.7-12.2,8.3-12.2S93,83.6,93,90.3s-3.7,12.2-8.3,12.2S76.4,97,76.4,90.3"/>
			<path class="st7" d="M77.1,90.3c0-6.2,3.4-11.2,7.6-11.2s7.6,5,7.6,11.2s-3.4,11.2-7.6,11.2S77.1,96.5,77.1,90.3"/>
			<path class="st5" d="M77.8,90.3c0-5.6,3.1-10.1,6.9-10.1s6.9,4.5,6.9,10.1s-3.1,10.1-6.9,10.1S77.8,95.9,77.8,90.3"/>
			<path class="st3" d="M78.5,90.3c0-5,2.8-9.1,6.2-9.1s6.2,4.1,6.2,9.1s-2.8,9.1-6.2,9.1S78.5,95.3,78.5,90.3"/>
			<path class="st75" d="M79.2,90.3c0-4.5,2.5-8.1,5.5-8.1s5.5,3.6,5.5,8.1s-2.5,8.1-5.5,8.1S79.2,94.8,79.2,90.3"/>
			<path class="st76" d="M79.8,90.3c0-3.9,2.2-7.1,4.8-7.1s4.8,3.2,4.8,7.1s-2.2,7.1-4.8,7.1S79.8,94.2,79.8,90.3"/>
			<path class="st77" d="M80.6,90.3c0-3.4,1.9-6.1,4.2-6.1s4.1,2.7,4.1,6.1s-1.9,6.1-4.2,6.1S80.5,93.7,80.6,90.3"/>
			<path class="st78" d="M81.2,90.3c0-2.8,1.6-5.1,3.5-5.1s3.5,2.3,3.5,5.1s-1.6,5.1-3.5,5.1S81.2,93.1,81.2,90.3"/>
			<path class="st79" d="M83.3,90.3c0-1.1,0.6-2,1.4-2s1.4,0.9,1.4,2s-0.6,2-1.4,2S83.3,91.4,83.3,90.3"/>
			<path class="st80" d="M81.9,90.3c0-2.2,1.2-4.1,2.8-4.1s2.8,1.8,2.8,4.1s-1.2,4.1-2.8,4.1S81.9,92.6,81.9,90.3"/>
			<path class="st81" d="M84,90.3c0-0.6,0.3-1,0.7-1s0.7,0.5,0.7,1s-0.3,1-0.7,1S84,90.8,84,90.3"/>
			<path class="st82" d="M98.9,50.7c0,0-14.5,1.2-26,10.7c-4,3.3-14.1,13-15.1,28.2c-0.7,11.8,1.6,20.6,9.7,29.9
				c9.4,10.8,25.6,13.2,35.3,6.7c8.1-5.4,13.1-21.2,3.9-32.7c-4.9-6.2-13.8-12.3-15-16.6C88,62.6,98.9,50.7,98.9,50.7z"/>
			<path class="st82" d="M98.9,50.7c0,0-14.5,1.2-26,10.7c-4,3.3-14.1,13-15.1,28.2c-0.7,11.8,1.6,20.6,9.7,29.9
				c9.4,10.8,25.6,13.2,35.3,6.7c8.1-5.4,13.1-21.2,3.9-32.7c-4.9-6.2-13.8-12.3-15-16.6C88,62.6,98.9,50.7,98.9,50.7z"/>
			<path class="st82" d="M98.9,50.7c0,0-14.5,1.2-26,10.7c-4,3.3-14.1,13-15.1,28.2c-0.7,11.8,1.6,20.6,9.7,29.9
				c9.4,10.8,25.6,13.2,35.3,6.7c8.1-5.4,13.1-21.2,3.9-32.7c-4.9-6.2-13.8-12.3-15-16.6C88,62.6,98.9,50.7,98.9,50.7z"/>
			<path class="st82" d="M98.9,50.7c0,0-14.5,1.2-26,10.7c-4,3.3-14.1,13-15.1,28.2c-0.7,11.8,1.6,20.6,9.7,29.9
				c9.4,10.8,25.6,13.2,35.3,6.7c8.1-5.4,13.1-21.2,3.9-32.7c-4.9-6.2-13.8-12.3-15-16.6C88,62.6,98.9,50.7,98.9,50.7z"/>
		</g>
	</g>
</g>
<radialGradient id="SVGID_00000005267684222774220960000011013446775175997850_" cx="97.9132" cy="92.2841" r="87.5503" gradientTransform="matrix(1.0725 0 0 1.0418 -7.7655 -4.9315)" gradientUnits="userSpaceOnUse">
	<stop  offset="0" style="stop-color:#FFFFFF;stop-opacity:0"/>
	<stop  offset="0.7892" style="stop-color:#FFFFFF;stop-opacity:0"/>
	<stop  offset="0.8919" style="stop-color:#FFFFFF;stop-opacity:0.6"/>
	<stop  offset="0.9748" style="stop-color:#FFFFFF;stop-opacity:0"/>
</radialGradient>
<ellipse style="fill:url(#SVGID_00000005267684222774220960000011013446775175997850_);" cx="97.2" cy="91.2" rx="93.9" ry="91.2"/>
<g>
	<path class="st84" d="M150.6,118c-1.5,0-2.7-0.7-3.5-2c-0.8-1.4-0.9-2.8-0.2-4.3l23-57.2c0.8-2,2.2-3,4-3c2,0,3.3,1,4,3l23.1,57.3
		c0.6,1.6,0.5,3-0.3,4.3c-0.8,1.3-2,1.9-3.6,1.9c-0.8,0-1.6-0.2-2.3-0.7c-0.7-0.5-1.3-1.1-1.6-2l-20.3-52.5h2.3l-20.6,52.5
		c-0.4,0.9-0.9,1.6-1.7,2C152.1,117.8,151.4,118,150.6,118z M154.9,103.3l3.3-7.3h32.1l3.3,7.3H154.9z"/>
	<path class="st84" d="M211.7,118.1c-1.2,0-2.2-0.4-2.9-1.2c-0.7-0.8-1.1-1.9-1.1-3.1v-38c0-1.3,0.4-2.4,1.1-3.2
		c0.7-0.8,1.7-1.2,2.9-1.2c1.3,0,2.3,0.4,3.1,1.2c0.8,0.8,1.2,1.8,1.2,3.2V90h10.5v8H216v15.8c0,1.2-0.4,2.3-1.2,3.1
		C214,117.7,213,118.1,211.7,118.1z M244.1,117c-0.7,0.7-1.7,1-3,1c-1.3,0-2.3-0.4-3-1.1l-19.9-22.2L237,72.7c0.7-0.8,1.7-1.2,3-1.4
		c1.3-0.1,2.3,0.2,3,0.9c0.8,0.8,1.3,1.7,1.4,2.7c0.1,1-0.2,1.9-0.9,2.7l-14.8,16.5l15.7,17.6c0.7,0.7,1.1,1.6,1.1,2.6
		C245.4,115.3,245,116.2,244.1,117z"/>
	<path class="st84" d="M257.8,118c-1.2,0-2.2-0.4-3-1.2c-0.8-0.8-1.2-1.9-1.2-3.1v-38c0.1-1.2,0.5-2.3,1.3-3.1
		c0.8-0.8,1.7-1.2,2.9-1.2c1.3,0,2.3,0.4,3,1.2c0.8,0.8,1.1,1.8,1.1,3.2v14.7h15.9v1.7c3,0,5.7,0.5,8,1.6c2.3,1.1,4.1,2.6,5.4,4.5
		c1.3,1.9,2,4.1,2,6.6c0,2.6-0.7,4.8-2,6.8c-1.3,2-3.1,3.6-5.4,4.7c-2.3,1.1-5,1.7-8,1.7H257.8z M271.3,95v-4.6h7.8
		c1.4,0,2.5-0.6,3.4-1.7c0.9-1.1,1.3-2.5,1.3-4.2c0-1.5-0.5-2.7-1.6-3.7c-1-1-2.3-1.4-3.9-1.4h-20.4v-8h20.4c2.6,0,4.8,0.5,6.8,1.6
		c2,1.1,3.6,2.5,4.7,4.3c1.1,1.8,1.7,4,1.7,6.3c0,3.3-1.2,6-3.6,8.1s-5.3,3.2-8.9,3.2H271.3z M261.9,109.9h15.9c2.2,0,4-0.6,5.3-1.7
		c1.4-1.1,2-2.5,2-4.3c0-1.9-0.7-3.4-2-4.6c-1.4-1.2-3.1-1.8-5.3-1.8h-15.9V109.9z"/>
	<path class="st84" d="M320,118.3c-4,0-7.6-1-10.7-3.1c-3.2-2.1-5.7-4.9-7.5-8.4c-1.8-3.5-2.7-7.6-2.7-12.1c0-4.5,1-8.5,3-12.1
		c2-3.6,4.7-6.4,8.1-8.5c3.4-2.1,7.2-3.1,11.5-3.1s8.1,1,11.5,3.1c3.4,2.1,6.1,4.9,8.1,8.5c2,3.6,3,7.6,3,12.1h-3.2
		c0,4.5-0.9,8.5-2.7,12.1c-1.8,3.6-4.3,6.4-7.5,8.4C327.6,117.3,324,118.3,320,118.3z M321.6,110.7c2.8,0,5.3-0.7,7.4-2.1
		c2.2-1.4,3.9-3.3,5.2-5.7c1.3-2.4,1.9-5.1,1.9-8.1c0-3.1-0.6-5.8-1.9-8.2c-1.3-2.4-3-4.3-5.2-5.7c-2.2-1.4-4.7-2.1-7.4-2.1
		c-2.7,0-5.2,0.7-7.4,2.1c-2.2,1.4-4,3.3-5.2,5.7c-1.3,2.4-1.9,5.2-1.9,8.2c0,3,0.6,5.7,1.9,8.1c1.3,2.4,3,4.3,5.2,5.7
		C316.4,110,318.9,110.7,321.6,110.7z M340,118.1c-1.2,0-2.2-0.4-3-1.2c-0.8-0.8-1.2-1.9-1.2-3.1v-13l1.6-9l6.8,3.1v19
		c0,1.2-0.4,2.3-1.2,3.1C342.2,117.7,341.2,118.1,340,118.1z"/>
	<path class="st84" d="M371.3,71.5c0.8,0,1.6,0.2,2.2,0.7c0.7,0.5,1.2,1.2,1.6,2.1l16.8,38.1c0.5,1.1,0.5,2.1,0.2,3
		c-0.4,0.9-1,1.5-2,2c-1.2,0.6-2.2,0.7-3.1,0.4c-0.9-0.3-1.6-1-2.2-2.1l-15.4-36.4h4.2l-15.9,36.4c-0.5,1.1-1.2,1.8-2.2,2.1
		c-1,0.3-2,0.2-3.1-0.4c-1-0.5-1.8-1.2-2.2-2c-0.4-0.9-0.3-1.8,0.2-3l16.9-38.1C368.2,72.4,369.5,71.5,371.3,71.5z"/>
	<path class="st84" d="M419.1,118.3c-4,0-7.6-1-10.7-3.1c-3.2-2.1-5.7-4.9-7.5-8.4c-1.8-3.5-2.7-7.6-2.7-12.1c0-4.5,1-8.5,3-12.1
		c2-3.6,4.7-6.4,8.1-8.5c3.4-2.1,7.2-3.1,11.5-3.1s8.1,1,11.5,3.1c3.4,2.1,6.1,4.9,8.1,8.5c2,3.6,3,7.6,3,12.1h-3.2
		c0,4.5-0.9,8.5-2.7,12.1c-1.8,3.6-4.3,6.4-7.5,8.4C426.7,117.3,423.1,118.3,419.1,118.3z M420.8,110.7c2.8,0,5.3-0.7,7.4-2.1
		c2.2-1.4,3.9-3.3,5.2-5.7c1.3-2.4,1.9-5.1,1.9-8.1c0-3.1-0.6-5.8-1.9-8.2c-1.3-2.4-3-4.3-5.2-5.7c-2.2-1.4-4.7-2.1-7.4-2.1
		c-2.7,0-5.2,0.7-7.4,2.1c-2.2,1.4-4,3.3-5.2,5.7c-1.3,2.4-1.9,5.2-1.9,8.2c0,3,0.6,5.7,1.9,8.1c1.3,2.4,3,4.3,5.2,5.7
		C415.6,110,418,110.7,420.8,110.7z M439.1,118.1c-1.2,0-2.2-0.4-3-1.2c-0.8-0.8-1.2-1.9-1.2-3.1v-13l1.6-9l6.8,3.1v19
		c0,1.2-0.4,2.3-1.2,3.1C441.3,117.7,440.3,118.1,439.1,118.1z"/>
	<path class="st84" d="M457.7,118c-1.2,0-2.2-0.4-2.9-1.2c-0.7-0.8-1.1-1.9-1.1-3.1V75.7c0-1.3,0.4-2.4,1.1-3.2
		c0.7-0.8,1.7-1.2,2.9-1.2c1.3,0,2.3,0.4,3,1.2c0.8,0.8,1.1,1.8,1.1,3.2v37.9c0,1.2-0.4,2.3-1.1,3.1
		C459.9,117.6,458.9,118,457.7,118z M460.8,97.6V90h28.7v7.7H460.8z M491.3,118c-1.2,0-2.2-0.4-3-1.2c-0.8-0.8-1.2-1.9-1.2-3.1V75.7
		c0-1.3,0.4-2.4,1.2-3.2c0.8-0.8,1.8-1.2,3-1.2c1.3,0,2.2,0.4,2.9,1.2c0.7,0.8,1.1,1.8,1.1,3.2v37.9c0,1.2-0.4,2.3-1.1,3.1
		C493.5,117.6,492.5,118,491.3,118z"/>
	<path class="st84" d="M528,118c-1.4,0-2.5-0.7-3.3-2c-0.8-1.4-0.8-2.8-0.2-4.3L546,54.4c0.8-2,2-3,3.8-3c1.8,0,3.1,1,3.8,3
		l21.6,57.3c0.6,1.6,0.5,3-0.2,4.3s-1.8,1.9-3.3,1.9c-0.8,0-1.5-0.2-2.2-0.7c-0.7-0.5-1.2-1.1-1.5-2l-19.2-52.5h2.5l-19.6,52.5
		c-0.4,0.9-0.9,1.6-1.6,2C529.4,117.8,528.7,118,528,118z"/>
</g>
</svg>
