<svg width="38" height="38" viewBox="0 0 38 38" fill="none" xmlns="http://www.w3.org/2000/svg">
<g clip-path="url(#clip0_118_1814)">
<path d="M12.92 0V6.33333V12.6667H6.46H0V19H6.46H12.92H19.4117V12.6667V6.33333V0H12.92Z" fill="#006747"/>
<path d="M19.3808 38V31.7908C21.0882 31.7909 22.7787 31.4592 24.3545 30.8149C25.9304 30.1706 27.3603 29.2265 28.5617 28.0371C29.7631 26.8477 30.7121 25.4366 31.3539 23.8855C31.9957 22.3343 32.3176 20.6738 32.3008 19H38.6341C38.6341 21.4951 38.1329 23.9658 37.1589 26.271C36.185 28.5762 34.7575 30.6707 32.9579 32.435C31.1583 34.1993 29.0218 35.5989 26.6706 36.5537C24.3193 37.5085 21.7992 38 19.2542 38" fill="#8FD6BD"/>
<path d="M32.2997 12.6686C27.1598 12.6686 22.2304 14.6704 18.5959 18.2336C14.9615 21.7967 12.9197 26.6295 12.9197 31.6686V37.8777H19.253V31.6686C19.2529 29.9947 19.5913 28.3373 20.2485 26.7924C20.9057 25.2475 21.8687 23.8455 23.0819 22.6677C24.295 21.4899 25.7343 20.5594 27.3165 19.9302C28.8987 19.301 30.5924 18.9855 32.2997 19.0019H38.633V12.7928L32.2997 12.6686Z" fill="#00AD6F"/>
</g>
<defs>
<clipPath id="clip0_118_1814">
<rect width="38" height="38" fill="white"/>
</clipPath>
</defs>
</svg>
