<?xml version="1.0" encoding="utf-8"?>
<!-- Generator: Adobe Illustrator 26.3.1, SVG Export Plug-In . SVG Version: 6.00 Build 0)  -->
<svg version="1.1" id="Layer_1" xmlns="http://www.w3.org/2000/svg" xmlns:xlink="http://www.w3.org/1999/xlink" x="0px" y="0px"
	 viewBox="0 0 652.6 825.9" style="enable-background:new 0 0 652.6 825.9;" xml:space="preserve">
<style type="text/css">
	.st0{fill:#394556;}
</style>
<g>
	<path class="st0" d="M173.7,456.4c-8.5,23-26.4,28-47.7,26.7c-5.8-0.4-11.6-0.8-17.5-0.9c-3.4,0-7.1,0.2-10.3,1.3
		c-9,3-10.7,12.3-3.3,18.3c3.5,2.9,8.1,4.7,12.3,6.3c12.5,4.8,25,9.3,37.4,14c19.6,7.4,33.2,21.1,41.1,40.5
		c4.3,10.5,5.4,21.4,2.9,32.3c-3.8,16.2-8.7,32.1-12.7,48.3c-2.9,11.9-5.7,24-7.7,36.1c-1.8,10.7,1.7,20.1,9.3,27.8
		c4.7,4.8,9.9,8.1,16.9,5.5c7.3-2.9,11.8-8.4,11.9-16.3c0.1-6.3-0.7-12.6-1.3-18.8c-1-10.7-0.3-21.3,2.4-31.7
		c8.1-30.1,29.2-46.2,60.3-45.6c35.6,0.7,60,18.9,76.5,49.2c6.3,11.5,9.9,24,11.2,37c1,9.3-1.4,17.6-8.9,23.7
		c-7.1,5.9-15.6,4.7-19.8-3.4c-2.5-4.7-3.9-10.3-4.1-15.6c-0.8-21.4-9.6-37.8-28.3-48.5c-10.6-6.1-21.9-6.8-33.1-2
		c-13,5.5-20.2,15.5-20.9,29.7c-0.4,8.6-0.2,17.3-0.2,25.9c-0.1,18.3-5.8,34.4-19.6,46.9c-12.2,11.2-26.4,14.6-42.1,9.7
		c-23.4-7.1-38.6-22.8-46.9-45.5c-7.7-21.1-6-43-3.8-64.8c1.6-15.9,4.4-31.6,6.3-47.5c0.7-5.4,0.8-11,0-16.4
		c-2.2-16.9-14-25.2-28.8-30.4c-12.2-4.4-24.7-8.3-36.3-13.9c-18.9-9.2-27.8-27-25.5-47.7c2.5-22,19.4-36,41.4-34.1
		c14.6,1.2,29.1,2.7,43.7,0.2c9.5-1.6,17.1-6.2,23.3-13.4c1.9-2.2,1.7-3.8,0-6c-2.5-3.1-4.6-6.5-6.8-9.8c-4-6.1-3.9-12.5-0.1-18.3
		c2.8-4.4,6.3-8.8,10.2-12.2c11.7-9.9,23.7-19.3,35.7-28.7c2.6-2.1,3.6-3.4,1.6-6.8c-3.7-6.3-7-12.9-9.6-19.6
		c-0.7-1.9,0.9-5.3,2.6-7.2c17.9-19.7,36-39.3,54.1-58.8C321.6,183.1,403.7,94.2,485.8,5.2c1.1-1.2,2.2-2.6,3.4-3.7
		c2.7-2.2,5-2.2,6.6,1.4c17.1,37.1,42.8,66.7,77,89c20.5,13.3,39.3,28.6,53.8,48.7c10.3,14.3,18.5,29.5,25,45.9
		c2,4.8,0.6,7.6-3.6,10.3c-31,20.3-62,40.8-92.9,61.2c-89.8,59.3-179.6,118.5-269.3,178c-4.3,2.9-7.7,3.5-12.2,0.8
		c-6.6-3.9-13.4-7.4-20.5-11.2c-5.5,6.5-10.9,13.5-17,19.8c-6.7,6.9-13.3,14-21,19.6c-9.3,6.9-19.5,6.7-29.3-0.1
		C182,462.2,178.2,459.6,173.7,456.4z M465.7,38.5c-1.7,1.9-3.4,3.5-5,5.2c-55,59.6-110,119.2-165,178.8
		c-33.9,36.7-67.7,73.4-101.6,110.1c-2,2.1-3.6,3.9-2,7.3c17.5,38.4,44.6,67.8,81.7,88c3.9,2.1,6.9,2.2,10.8-0.4
		c74.6-49.5,149.2-98.7,223.9-148c34.6-22.8,69.1-45.6,103.7-68.3c2.5-1.6,4.7-3,2.9-6.6c-5.3-10.9-9.8-22.3-15.7-32.8
		c-12.1-21.2-30.4-36.8-50-50.9c-22.8-16.4-44.6-33.9-62.7-55.6C479.6,56.7,473,47.8,465.7,38.5z M159,442.8
		c-14.1,19.1-34.4,19.9-55,19.3c-7.4-0.2-14.9-1.4-22.4-1.7c-13.1-0.6-23.7,6.4-28.3,18.7c-6.7,17.3,0.3,38.2,16.5,47.2
		c8.1,4.5,17,7.6,25.7,11c6.2,2.4,12.8,3.8,18.8,6.5c11.9,5.1,21.9,13,25.3,25.9c2.2,8,2.8,16.8,2.1,25.1
		c-1.4,16.3-4.6,32.2-6.4,48.5c-2,20.4-3.9,40.8,3,60.8c7.6,21.8,22.2,36.5,44.8,42.2c9.6,2.5,18.9,0.8,27.1-5
		c14-10,20.8-23.9,21.6-40.9c0.5-9.8,0-19.6,0.4-29.4c0.7-17.6,9.2-30.4,25.5-37.3c14.9-6.3,29.4-4.8,43,3.8
		c19.4,12.4,28.7,30.2,29.6,53c0.2,4,1.1,8.2,2.8,11.9c2.1,4.6,5.5,4.7,9.2,1.1c4.7-4.6,6.5-10.7,5.1-17c-2.2-9.7-3.9-19.8-8.1-28.7
		c-13.4-28.8-34.9-47.5-68-49.7c-25.5-1.7-44.3,8.8-53.2,30.3c-4.4,10.6-6.3,21.7-5.7,33.1c0.5,8.5,1.8,16.9,1.7,25.4
		c-0.3,11.3-6.5,19-16.9,23.1c-10,3.8-18.3-0.1-25.2-7.3c-9.1-9.4-13.6-20.7-11.5-33.6c2.2-13.4,5.4-26.7,8.6-39.9
		c3.8-15.2,8.2-30.2,11.9-45.3c2.1-8.9,1.5-18-1.8-26.5c-6.7-17.5-18.5-30.3-36.1-37.1c-12.5-4.8-25.3-9.4-37.9-14.3
		c-4.7-1.8-9.3-3.7-13.5-6.4c-6.9-4.4-9.8-11.4-8.8-19.4c1-7.9,6.7-12.1,13.9-14c4.6-1.2,9.5-1.4,14.3-1.4c9.1,0,18.3,0.8,27.4,0.5
		c13.7-0.5,23.6-8.2,27.8-21.2c0.5-1.3,0.3-3.4-0.5-4.3C163.9,447.1,161.5,445.2,159,442.8z M178.9,382.8
		c16.6,20.4,35.4,37,57.4,50.3c3.7-4.2,7-8.3,10.8-12.7c-19.5-14.5-35.4-31.6-48.7-52.1C191.9,373.2,185.6,377.8,178.9,382.8z
		 M160.5,398.5c16.9,21.8,36.6,39.1,60.2,52.7c3.5-4,6.9-7.8,10.5-11.9c-22.7-13.9-41.8-31-58.5-51.4
		C168.5,391.5,164.7,394.8,160.5,398.5z M154.6,405.1c-5.5,6-6,10-1.7,16.6c10,15.3,23.1,27.5,38.4,37.2c7.9,5.1,14.9,4.1,21.6-2.2
		c-10.3-7.8-20.9-15.2-30.6-23.8C172.5,424.3,163.7,414.5,154.6,405.1z M623.3,203.6c6.6-4.3,12.9-8.4,19.2-12.7
		c0.8-0.5,1.4-2.5,1.1-3.3c-3-7.2-6.3-14.1-10-22.3c-7,4.6-13.2,8.6-19.2,12.9c-0.6,0.5-0.9,2.2-0.6,3
		C616.9,188.5,620,195.8,623.3,203.6z M608.5,130.2c-6.6-5.8-13.1-11.5-19.6-17.1c-0.7-0.5-2.8-0.6-3.3,0
		c-4.8,4.7-9.5,9.6-14.1,14.4c6.8,6.5,12.8,12.3,19,18.3C596.2,140.8,601.9,135.8,608.5,130.2z M609,171.8
		c7.1-4.5,13.5-8.6,20.6-13.1c-5.3-7.4-10.4-14.6-16.1-22.4c-6.5,5.5-12.3,10.6-18.2,15.6C600.2,158.8,604.6,165.1,609,171.8z
		 M544.4,107.4c7.3,5.4,14,10.4,20.7,15.4c5.2-5.7,9.9-10.8,15-16.4c-7.7-5.2-15.1-10.4-22.9-15.9
		C552.8,96.4,548.8,101.8,544.4,107.4z M515.6,50.8c-5.8,5.7-11.1,11-16.8,16.6c5.5,5.5,10.5,10.6,15.8,15.8
		c5.3-5.8,10-11.1,14.8-16.6C525,61.5,520.6,56.5,515.6,50.8z M535.2,72.4c-4.3,4.6-8.4,8.8-12.1,13.2c-0.9,1-1.1,3.8-0.4,4.6
		c4.9,4.5,10.1,8.4,15.3,12.7c4.5-6,8.6-11.4,12.6-16.9C545.6,81.3,540.7,77.1,535.2,72.4z M480.2,43.5c5.7-5.3,11.6-10.7,17.2-16.2
		c0.6-0.6,0.8-2.2,0.5-2.9c-2.1-4.3-4.5-8.4-7.1-13.1c-4.2,4.5-7.9,8.4-11.6,12.5c-8.5,9.2-8.5,9.2-0.3,19
		C479.2,42.9,479.5,43,480.2,43.5z M503,32.7c-6.5,6.3-12.4,11.9-18.4,17.8c3.3,4,6.2,7.3,9.1,10.9c5.9-5.8,11.4-11.2,17.3-16.9
		C508.5,40.7,506,37,503,32.7z"/>
	<path class="st0" d="M535.3,712.1c6,22.2,0.9,40.6-7.4,58.5c-6.4,13.6-15,25.5-27.8,34c-11.3,7.4-23.3,9.1-36.2,4.2
		c-20-7.5-38.9-17.4-56.9-28.9c-5.4-3.5-10.7-7.4-16.3-10.7c-3.6-2.1-3.3-4.3-1.2-6.8c2.6-3.1,5.6-5.8,8.1-8.8
		c26.7-30.1,41-65.5,43.2-105.6c0.1-1.7-0.3-3.8,0.5-4.8c1.2-1.5,3.7-3.4,5-3c33.9,11.5,64.7,27.7,83.5,60
		C532.5,704.7,534.2,709.6,535.3,712.1z M448.8,648.9c-3.2,45-19.7,83.3-50.4,115.6c1.1,0.8,1.8,1.6,2.6,2.1
		c19.6,13.3,40.4,24.6,62.3,33.7c14.7,6.1,27.3,3.5,38.6-7.1c13.9-13,22-29.5,26.5-47.7c4-16.3,1.6-31.4-7.7-45.3
		C503.5,674.1,477.9,660.1,448.8,648.9z"/>
	<path class="st0" d="M0,686.4c1-5.6,1.5-11.4,3.3-16.8c3.3-9.7,10.3-17,17.8-23.6c13.9-12.3,28.2-24.3,42.1-36.6
		c5.8-5.1,11-11.1,16.9-16.2c1.9-1.7,5.2-3.6,7-3.1c1.9,0.6,3.5,4.1,4,6.6c0.6,3.4,0.4,7,0,10.4c-4,31.6-16.8,59-40.3,80.8
		c-7.3,6.8-15.8,12.3-26.3,13c-11,0.7-20.9-5.3-23.2-14.2C0.9,686.6,0.4,686.5,0,686.4z M83.8,601.9C64.2,619,45,635.4,26,652.1
		c-3.5,3.1-7.1,6.3-9.4,10.2c-3.2,5.3-6.2,11.1-7.9,16.9c-1.8,6.5,1.5,10.6,8,12.8c6.9,2.2,13.1,0.6,19-3
		c14.5-8.8,24.3-22,32.5-36.4C77.3,637,82.2,620.3,83.8,601.9z"/>
	<path class="st0" d="M280.9,809.2c-3.2-4.7-7-9.2-9.6-14.3c-4.5-9.2-4.7-19.3-4.1-29.3c1.2-18.5,2.7-37.2,3.9-55.7
		c0.4-7.8,0-15.7,0.5-23.4c0.1-2.5,1.2-6.2,2.8-7.2c1.8-0.9,5.4,0.4,7.4,1.8c2.8,1.9,5.1,4.7,7.3,7.4c19.6,25.2,29.8,53.6,28.7,85.7
		c-0.3,10-2.5,19.9-9.4,27.8c-7.4,8.3-18.5,11.1-26.4,6.4C281.7,808.7,281.3,809,280.9,809.2z M280.4,690.2
		c-1.8,25.9-3.8,51.1-5.4,76.3c-0.4,4.7-0.5,9.5,0.5,13.9c1.5,6,3.5,12.2,6.4,17.5c3.3,5.9,8.5,6.5,14.7,3.4
		c6.5-3.2,9.7-8.8,11.3-15.6c4-16.5,1.6-32.7-2.7-48.7C300.7,719.7,292.3,704.4,280.4,690.2z"/>
	<path class="st0" d="M43.4,380.5c4.8-0.9,9.8,1.2,13.7,5.4c2.7,2.9,4.6,6.5,7.1,9.5c5.3,6.2,10.7,12.2,16,18.3c1,1.2,2,3.5,1.6,4.5
		c-0.6,1.3-2.9,2.7-4.3,2.4c-16.5-2.3-32-6.9-40.9-22.9C32.6,390.7,35.3,382.8,43.4,380.5z M64.7,410.1c-3.9-6.1-7.1-11.3-10.5-16.3
		c-1.2-1.7-2.7-3.6-4.6-4.4c-1.7-0.8-3.9-0.2-5.9-0.2c0.1,1.8-0.5,4.1,0.3,5.3C49,401.5,55,407.4,64.7,410.1z"/>
	<path class="st0" d="M236.5,529.6c5.5-0.5,11.6-1.3,17.7-1.4c3.2,0,6.5,1.1,9.5,2.5c4.3,2.1,6.6,7.9,5.7,12.8
		c-1,5.5-5.2,6.6-9.6,6.8c-12.3,0.5-23.5-3.9-34.6-8.3c-3.2-1.3-3.3-5.1,0-7.3C228.2,532.8,232,531.6,236.5,529.6z M238.9,537
		c0,0.6,0,1.1,0,1.8c5.1,1.4,10,3.2,15.2,4.1c2.2,0.3,4.7-1.2,7-2c-2-1.5-4-4.2-6.1-4.4C249.8,536.1,244.4,536.8,238.9,537z"/>
	<path class="st0" d="M141.7,798.8c-1.7,5.2-3.1,11.2-5.4,16.9c-1.3,2.9-3.5,5.6-5.9,7.9c-3.6,3.2-9.8,3-14.1,0.5
		c-4.7-3-4.2-7.3-2.7-11.5c4.2-11.5,12.4-20.3,20.8-28.8c2.4-2.4,5.9-1.1,6.8,2.7C141.9,789.9,141.5,794,141.7,798.8z M133.9,798.3
		c-0.6-0.3-1.1-0.4-1.6-0.7c-3.2,4.1-6.8,8.1-9.6,12.6c-1.1,1.9-0.7,4.7-0.9,7.3c2.2-1.2,5.3-2.1,6.4-4
		C130.7,808.7,132.1,803.4,133.9,798.3z"/>
	<path class="st0" d="M476.3,790.3c0-6.4-0.5-12.1,0.1-17.7c2.1-23.6,10.2-44.8,26.9-61.9c2.7-2.8,5.9-5.5,9.3-7.5
		c1.4-0.8,4.1,0.2,6.1,0.4c-0.6,1.9-0.6,4.7-1.8,5.8c-25,19.6-33.7,46-32.9,76.7c0,0.8,0.6,1.9,0.3,2.4c-1.2,1.8-2.4,3.7-4.1,4.7
		C479.7,793.4,477.7,791.2,476.3,790.3z"/>
</g>
</svg>
